<?xml version="1.0" encoding="UTF-8" standalone="no"?>
<svg width="1200" height="800" version="1.1" xmlns="http://www.w3.org/2000/svg">
<style>
.title { font-size: 16px; font-weight: bold; font-family: monospace; }
.subtitle { font-size: 12px; font-family: monospace; fill: #666; }
.node { cursor: pointer; }
.node:hover { opacity: 0.8; }
.node-text { font-size: 11px; font-family: monospace; pointer-events: none; }
.edge { stroke: #999; stroke-opacity: 0.6; stroke-width: 1.5px; marker-end: url(#arrowhead); }
.edge:hover { stroke-opacity: 1; }
</style>
<defs>
  <marker id="arrowhead" viewBox="0 -3 6 6" refX="6" refY="0"
          markerWidth="4" markerHeight="4" orient="auto">
    <path d="M0,-3L6,0L0,3" fill="#999"/>
  </marker>
</defs>
<text x="40" y="20" class="title">Type: cpu</text>
<text x="40" y="35" class="subtitle">77 functions, 131 edges</text>
<line class="edge" x1="161.3" y1="40.0" x2="313.8" y2="40.0" />
<line class="edge" x1="425.5" y1="760.0" x2="209.6" y2="760.0" />
<line class="edge" x1="1119.4" y1="40.0" x2="1154.9" y2="40.0" />
<line class="edge" x1="122.6" y1="760.0" x2="203.4" y2="596.9" />
<line class="edge" x1="40.0" y1="201.5" x2="40.0" y2="409.8" />
<line class="edge" x1="40.0" y1="201.5" x2="84.5" y2="44.8" />
<line class="edge" x1="693.8" y1="437.7" x2="1155.3" y2="659.6" />
<line class="edge" x1="693.8" y1="437.7" x2="1155.7" y2="727.1" />
<line class="edge" x1="693.8" y1="437.7" x2="45.0" y2="69.7" />
<line class="edge" x1="601.6" y1="271.2" x2="1114.7" y2="42.1" />
<line class="edge" x1="601.6" y1="271.2" x2="1155.7" y2="658.9" />
<line class="edge" x1="601.6" y1="271.2" x2="586.8" y2="562.2" />
<line class="edge" x1="601.6" y1="271.2" x2="50.3" y2="44.3" />
<line class="edge" x1="601.6" y1="271.2" x2="45.4" y2="68.8" />
<line class="edge" x1="601.6" y1="271.2" x2="683.1" y2="475.8" />
<line class="edge" x1="619.1" y1="40.0" x2="865.5" y2="40.0" />
<line class="edge" x1="400.4" y1="760.0" x2="44.8" y2="652.0" />
<line class="edge" x1="400.4" y1="760.0" x2="872.1" y2="760.0" />
<line class="edge" x1="1160.0" y1="709.9" x2="1160.0" y2="755.0" />
<line class="edge" x1="986.0" y1="601.4" x2="770.2" y2="668.9" />
<line class="edge" x1="40.0" y1="274.4" x2="194.6" y2="44.4" />
<line class="edge" x1="296.0" y1="202.2" x2="451.3" y2="43.6" />
<line class="edge" x1="296.0" y1="202.2" x2="249.3" y2="398.3" />
<line class="edge" x1="586.5" y1="567.9" x2="1096.3" y2="758.2" />
<line class="edge" x1="586.5" y1="567.9" x2="1154.8" y2="661.0" />
<line class="edge" x1="586.5" y1="567.9" x2="44.2" y2="70.7" />
<line class="edge" x1="586.5" y1="567.9" x2="897.3" y2="757.3" />
<line class="edge" x1="586.5" y1="567.9" x2="44.9" y2="712.8" />
<line class="edge" x1="1160.0" y1="546.2" x2="1160.0" y2="704.9" />
<line class="edge" x1="873.5" y1="592.3" x2="865.5" y2="437.4" />
<line class="edge" x1="118.5" y1="290.3" x2="160.4" y2="44.9" />
<line class="edge" x1="40.0" y1="130.8" x2="43.5" y2="45.0" />
<line class="edge" x1="454.9" y1="40.0" x2="429.2" y2="40.0" />
<line class="edge" x1="515.1" y1="416.3" x2="294.2" y2="443.2" />
<line class="edge" x1="515.1" y1="416.3" x2="570.8" y2="440.1" />
<line class="edge" x1="515.1" y1="416.3" x2="595.2" y2="282.0" />
<line class="edge" x1="515.1" y1="416.3" x2="45.5" y2="734.1" />
<line class="edge" x1="515.1" y1="416.3" x2="1047.4" y2="364.5" />
<line class="edge" x1="515.1" y1="416.3" x2="617.8" y2="44.8" />
<line class="edge" x1="40.0" y1="292.8" x2="194.7" y2="44.5" />
<line class="edge" x1="934.1" y1="760.0" x2="840.8" y2="760.0" />
<line class="edge" x1="1160.0" y1="729.8" x2="1160.0" y2="691.6" />
<line class="edge" x1="1160.0" y1="587.9" x2="1160.0" y2="755.0" />
<line class="edge" x1="1160.0" y1="615.0" x2="1160.0" y2="755.0" />
<line class="edge" x1="719.6" y1="40.0" x2="472.9" y2="40.0" />
<line class="edge" x1="1063.4" y1="40.0" x2="1155.6" y2="89.6" />
<line class="edge" x1="1010.6" y1="40.0" x2="1058.4" y2="40.0" />
<line class="edge" x1="870.5" y1="40.0" x2="868.3" y2="195.2" />
<line class="edge" x1="984.2" y1="40.0" x2="1034.1" y2="40.0" />
<line class="edge" x1="248.1" y1="403.4" x2="44.2" y2="267.1" />
<line class="edge" x1="248.1" y1="403.4" x2="627.9" y2="144.7" />
<line class="edge" x1="248.1" y1="403.4" x2="42.5" y2="755.7" />
<line class="edge" x1="685.1" y1="480.9" x2="1155.7" y2="757.4" />
<line class="edge" x1="685.1" y1="480.9" x2="1096.9" y2="757.1" />
<line class="edge" x1="685.1" y1="480.9" x2="1155.1" y2="660.0" />
<line class="edge" x1="685.1" y1="480.9" x2="1079.5" y2="43.9" />
<line class="edge" x1="685.1" y1="480.9" x2="44.8" y2="69.9" />
<line class="edge" x1="685.1" y1="480.9" x2="44.8" y2="712.4" />
<line class="edge" x1="632.2" y1="141.8" x2="1005.7" y2="41.3" />
<line class="edge" x1="632.2" y1="141.8" x2="45.0" y2="97.9" />
<line class="edge" x1="632.2" y1="141.8" x2="1063.7" y2="303.1" />
<line class="edge" x1="695.9" y1="40.0" x2="472.9" y2="40.0" />
<line class="edge" x1="1160.0" y1="221.4" x2="1160.0" y2="45.0" />
<line class="edge" x1="579.0" y1="443.6" x2="594.8" y2="751.1" />
<line class="edge" x1="579.0" y1="443.6" x2="1155.1" y2="660.0" />
<line class="edge" x1="579.0" y1="443.6" x2="44.7" y2="70.1" />
<line class="edge" x1="56.1" y1="40.0" x2="280.7" y2="40.0" />
<line class="edge" x1="681.1" y1="40.0" x2="690.9" y2="40.0" />
<line class="edge" x1="1039.1" y1="40.0" x2="1128.8" y2="40.0" />
<line class="edge" x1="1160.0" y1="357.3" x2="1160.0" y2="156.9" />
<line class="edge" x1="1053.1" y1="364.0" x2="1158.4" y2="681.9" />
<line class="edge" x1="1053.1" y1="364.0" x2="873.0" y2="44.4" />
<line class="edge" x1="492.5" y1="475.4" x2="994.9" y2="757.5" />
<line class="edge" x1="492.5" y1="475.4" x2="44.0" y2="133.8" />
<line class="edge" x1="765.4" y1="670.4" x2="792.7" y2="464.8" />
<line class="edge" x1="205.6" y1="592.5" x2="119.9" y2="295.1" />
<line class="edge" x1="40.0" y1="414.8" x2="75.1" y2="755.0" />
<line class="edge" x1="40.0" y1="414.8" x2="55.9" y2="45.0" />
<line class="edge" x1="197.5" y1="40.0" x2="293.3" y2="197.7" />
<line class="edge" x1="494.7" y1="351.9" x2="44.0" y2="680.7" />
<line class="edge" x1="494.7" y1="351.9" x2="980.0" y2="42.7" />
<line class="edge" x1="272.5" y1="40.0" x2="45.7" y2="66.2" />
<line class="edge" x1="272.5" y1="40.0" x2="628.4" y2="40.0" />
<line class="edge" x1="40.0" y1="264.3" x2="40.0" y2="259.6" />
<line class="edge" x1="287.6" y1="444.0" x2="408.9" y2="754.2" />
<line class="edge" x1="287.6" y1="444.0" x2="581.2" y2="565.7" />
<line class="edge" x1="287.6" y1="444.0" x2="43.1" y2="71.6" />
<line class="edge" x1="424.1" y1="40.0" x2="652.6" y2="40.0" />
<line class="edge" x1="868.2" y1="200.2" x2="964.1" y2="44.3" />
<line class="edge" x1="868.2" y1="200.2" x2="749.3" y2="401.5" />
<line class="edge" x1="111.2" y1="40.0" x2="72.3" y2="40.0" />
<line class="edge" x1="793.4" y1="459.7" x2="497.5" y2="475.2" />
<line class="edge" x1="793.4" y1="459.7" x2="1155.4" y2="613.1" />
<line class="edge" x1="793.4" y1="459.7" x2="1071.9" y2="756.4" />
<line class="edge" x1="793.4" y1="459.7" x2="440.1" y2="43.8" />
<line class="edge" x1="793.4" y1="459.7" x2="870.9" y2="588.0" />
<line class="edge" x1="595.2" y1="760.0" x2="1155.0" y2="760.0" />
<line class="edge" x1="595.2" y1="760.0" x2="45.0" y2="760.0" />
<line class="edge" x1="865.2" y1="432.3" x2="933.1" y2="755.1" />
<line class="edge" x1="865.2" y1="432.3" x2="1155.3" y2="544.4" />
<line class="edge" x1="865.2" y1="432.3" x2="564.4" y2="98.3" />
<line class="edge" x1="467.9" y1="40.0" x2="714.6" y2="40.0" />
<line class="edge" x1="467.9" y1="40.0" x2="116.2" y2="40.0" />
<line class="edge" x1="1160.0" y1="203.0" x2="1160.0" y2="343.2" />
<line class="edge" x1="1160.0" y1="151.9" x2="1146.3" y2="45.0" />
<line class="edge" x1="594.3" y1="526.4" x2="1120.3" y2="758.0" />
<line class="edge" x1="594.3" y1="526.4" x2="788.5" y2="461.3" />
<line class="edge" x1="594.3" y1="526.4" x2="44.6" y2="276.5" />
<line class="edge" x1="204.6" y1="760.0" x2="127.6" y2="760.0" />
<line class="edge" x1="884.8" y1="335.7" x2="982.6" y2="44.8" />
<line class="edge" x1="884.8" y1="335.7" x2="499.7" y2="351.7" />
<line class="edge" x1="884.8" y1="335.7" x2="1156.3" y2="584.5" />
<line class="edge" x1="1160.0" y1="120.7" x2="1160.0" y2="45.0" />
<line class="edge" x1="966.7" y1="40.0" x2="1156.2" y2="199.7" />
<line class="edge" x1="40.0" y1="650.5" x2="40.0" y2="755.0" />
<line class="edge" x1="40.0" y1="254.6" x2="40.0" y2="537.6" />
<line class="edge" x1="999.3" y1="760.0" x2="1156.0" y2="639.5" />
<line class="edge" x1="835.8" y1="760.0" x2="1015.1" y2="760.0" />
<line class="edge" x1="318.8" y1="40.0" x2="401.0" y2="40.0" />
<line class="edge" x1="406.0" y1="40.0" x2="676.1" y2="40.0" />
<line class="edge" x1="877.1" y1="760.0" x2="1042.9" y2="760.0" />
<line class="edge" x1="1068.5" y1="304.9" x2="889.8" y2="334.9" />
<line class="edge" x1="1160.0" y1="348.2" x2="988.8" y2="597.3" />
<line class="edge" x1="1160.0" y1="348.2" x2="1160.0" y2="226.4" />
<line class="edge" x1="746.8" y1="405.9" x2="1155.5" y2="205.2" />
<line class="edge" x1="746.8" y1="405.9" x2="1155.9" y2="123.6" />
<line class="edge" x1="746.8" y1="405.9" x2="163.0" y2="757.4" />
<line class="edge" x1="561.1" y1="94.6" x2="1097.2" y2="40.5" />
<line class="edge" x1="561.1" y1="94.6" x2="44.9" y2="200.5" />
<g class="node" transform="translate(161.3,40.0)">
<circle r="5.0" fill="#ff9696" stroke="#fff" stroke-width="1" />
<title>github.com/golang/protobuf/proto.Marshal
累积: 10.00ms (0.0%)
自身: 0.00ms (0.0%)
</title>
<text x="0.0" y="17.0" class="node-text" text-anchor="middle">github.com/golang...</text>
</g>
<g class="node" transform="translate(43.7,40.0)">
<circle r="5.0" fill="#ff9696" stroke="#fff" stroke-width="1" />
<title>internal/runtime/atomic.(*Uint64).Add
累积: 10.00ms (0.0%)
自身: 0.00ms (0.0%)
</title>
<text x="0.0" y="17.0" class="node-text" text-anchor="middle">internal/runtime/...</text>
</g>
<g class="node" transform="translate(1047.9,760.0)">
<circle r="5.0" fill="#ff9696" stroke="#fff" stroke-width="1" />
<title>runtime/pprof.(*profMap).lookup
累积: 10.00ms (0.0%)
自身: 0.00ms (0.0%)
</title>
<text x="0.0" y="17.0" class="node-text" text-anchor="middle">runtime/pprof.(*p...</text>
</g>
<g class="node" transform="translate(1119.4,40.0)">
<circle r="5.2" fill="#ff9797" stroke="#fff" stroke-width="1" />
<title>math.Modf
累积: 290.00ms (1.2%)
自身: 0.00ms (0.0%)
</title>
<text x="0.0" y="17.2" class="node-text" text-anchor="middle">math.Modf</text>
</g>
<g class="node" transform="translate(40.0,201.5)">
<circle r="5.0" fill="#ff9696" stroke="#fff" stroke-width="1" />
<title>runtime.(*mheap).freeSpanLocked
累积: 30.00ms (0.1%)
自身: 0.00ms (0.0%)
</title>
<text x="0.0" y="17.0" class="node-text" text-anchor="middle">runtime.(*mheap)....</text>
</g>
<g class="node" transform="translate(693.8,437.7)">
<circle r="5.1" fill="#ff9696" stroke="#fff" stroke-width="1" />
<title>math.Sin
累积: 180.00ms (0.7%)
自身: 0.00ms (0.0%)
</title>
<text x="0.0" y="17.1" class="node-text" text-anchor="middle">math.Sin</text>
</g>
<g class="node" transform="translate(619.1,40.0)">
<circle r="5.0" fill="#ff9696" stroke="#fff" stroke-width="1" />
<title>main.calculateMatrix
累积: 30.00ms (0.1%)
自身: 0.00ms (0.0%)
</title>
<text x="0.0" y="17.0" class="node-text" text-anchor="middle">main.calculateMatrix</text>
</g>
<g class="node" transform="translate(400.4,760.0)">
<circle r="5.0" fill="#ff9696" stroke="#fff" stroke-width="1" />
<title>runtime/pprof.profileWriter
累积: 20.00ms (0.1%)
自身: 0.00ms (0.0%)
</title>
<text x="0.0" y="17.0" class="node-text" text-anchor="middle">runtime/pprof.pro...</text>
</g>
<g class="node" transform="translate(986.0,601.4)">
<circle r="5.0" fill="#ff9696" stroke="#fff" stroke-width="1" />
<title>runtime.(*mcentral).cacheSpan
累积: 10.00ms (0.0%)
自身: 0.00ms (0.0%)
</title>
<text x="0.0" y="17.0" class="node-text" text-anchor="middle">runtime.(*mcentra...</text>
</g>
<g class="node" transform="translate(586.5,567.9)">
<circle r="5.7" fill="#ff9b9b" stroke="#fff" stroke-width="1" />
<title>math.Frexp
累积: 1170.00ms (4.9%)
自身: 0.00ms (0.0%)
</title>
<text x="0.0" y="17.7" class="node-text" text-anchor="middle">math.Frexp</text>
</g>
<g class="node" transform="translate(1160.0,546.2)">
<circle r="5.0" fill="#ff9696" stroke="#fff" stroke-width="1" />
<title>runtime.gcStart.func4
累积: 10.00ms (0.0%)
自身: 0.00ms (0.0%)
</title>
<text x="0.0" y="17.0" class="node-text" text-anchor="middle">runtime.gcStart.f...</text>
</g>
<g class="node" transform="translate(873.5,592.3)">
<circle r="5.0" fill="#ff9696" stroke="#fff" stroke-width="1" />
<title>runtime.(*mheap).freeSpan
累积: 50.00ms (0.2%)
自身: 0.00ms (0.0%)
</title>
<text x="0.0" y="17.0" class="node-text" text-anchor="middle">runtime.(*mheap)....</text>
</g>
<g class="node" transform="translate(118.5,290.3)">
<circle r="5.0" fill="#ff9696" stroke="#fff" stroke-width="1" />
<title>google.golang.org/grpc.encode
累积: 10.00ms (0.0%)
自身: 0.00ms (0.0%)
</title>
<text x="0.0" y="17.0" class="node-text" text-anchor="middle">google.golang.org...</text>
</g>
<g class="node" transform="translate(1160.0,40.0)">
<circle r="5.0" fill="#ff9696" stroke="#fff" stroke-width="1" />
<title>runtime.mProf_Malloc
累积: 10.00ms (0.0%)
自身: 0.00ms (0.0%)
</title>
<text x="0.0" y="17.0" class="node-text" text-anchor="middle">runtime.mProf_Malloc</text>
</g>
<g class="node" transform="translate(1160.0,760.0)">
<circle r="5.0" fill="#ff9696" stroke="#fff" stroke-width="1" />
<title>runtime.unlock2
累积: 10.00ms (0.0%)
自身: 0.00ms (0.0%)
</title>
<text x="0.0" y="17.0" class="node-text" text-anchor="middle">runtime.unlock2</text>
</g>
<g class="node" transform="translate(85.9,40.0)">
<circle r="5.0" fill="#ff9696" stroke="#fff" stroke-width="1" />
<title>internal/runtime/atomic.(*Uint32).Add
累积: 10.00ms (0.0%)
自身: 0.00ms (0.0%)
</title>
<text x="0.0" y="17.0" class="node-text" text-anchor="middle">internal/runtime/...</text>
</g>
<g class="node" transform="translate(1160.0,729.8)">
<circle r="5.1" fill="#ff9696" stroke="#fff" stroke-width="1" />
<title>math.sin
累积: 150.00ms (0.6%)
自身: 0.00ms (0.0%)
</title>
<text x="0.0" y="17.1" class="node-text" text-anchor="middle">math.sin</text>
</g>
<g class="node" transform="translate(1160.0,615.0)">
<circle r="5.0" fill="#ff9696" stroke="#fff" stroke-width="1" />
<title>runtime.(*mheap).nextSpanForSweep
累积: 70.00ms (0.3%)
自身: 0.00ms (0.0%)
</title>
<text x="0.0" y="17.0" class="node-text" text-anchor="middle">runtime.(*mheap)....</text>
</g>
<g class="node" transform="translate(40.0,97.5)">
<circle r="5.0" fill="#ff9696" stroke="#fff" stroke-width="1" />
<title>runtime.globrunqget
累积: 40.00ms (0.2%)
自身: 0.00ms (0.0%)
</title>
<text x="0.0" y="17.0" class="node-text" text-anchor="middle">runtime.globrunqget</text>
</g>
<g class="node" transform="translate(248.1,403.4)">
<circle r="5.2" fill="#ff9797" stroke="#fff" stroke-width="1" />
<title>runtime.schedule
累积: 400.00ms (1.7%)
自身: 0.00ms (0.0%)
</title>
<text x="0.0" y="17.2" class="node-text" text-anchor="middle">runtime.schedule</text>
</g>
<g class="node" transform="translate(984.2,40.0)">
<circle r="5.0" fill="#ff9696" stroke="#fff" stroke-width="1" />
<title>runtime.(*timer).updateHeap
累积: 40.00ms (0.2%)
自身: 0.00ms (0.0%)
</title>
<text x="0.0" y="17.0" class="node-text" text-anchor="middle">runtime.(*timer)....</text>
</g>
<g class="node" transform="translate(40.0,760.0)">
<circle r="5.0" fill="#ff9696" stroke="#fff" stroke-width="1" />
<title>runtime.(*profBuf).read
累积: 10.00ms (0.0%)
自身: 0.00ms (0.0%)
</title>
<text x="0.0" y="17.0" class="node-text" text-anchor="middle">runtime.(*profBuf...</text>
</g>
<g class="node" transform="translate(632.2,141.8)">
<circle r="5.2" fill="#ff9797" stroke="#fff" stroke-width="1" />
<title>runtime.findRunnable
累积: 300.00ms (1.2%)
自身: 0.00ms (0.0%)
</title>
<text x="0.0" y="17.2" class="node-text" text-anchor="middle">runtime.findRunnable</text>
</g>
<g class="node" transform="translate(695.9,40.0)">
<circle r="5.0" fill="#ff9696" stroke="#fff" stroke-width="1" />
<title>google.golang.org/protobuf/internal/impl.(*MessageInfo).marshal
累积: 10.00ms (0.0%)
自身: 0.00ms (0.0%)
</title>
<text x="0.0" y="17.0" class="node-text" text-anchor="middle">google.golang.org...</text>
</g>
<g class="node" transform="translate(1160.0,221.4)">
<circle r="5.0" fill="#ff9696" stroke="#fff" stroke-width="1" />
<title>runtime.(*mcentral).uncacheSpan
累积: 10.00ms (0.0%)
自身: 0.00ms (0.0%)
</title>
<text x="0.0" y="17.0" class="node-text" text-anchor="middle">runtime.(*mcentra...</text>
</g>
<g class="node" transform="translate(579.0,443.6)">
<circle r="9.0" fill="#ffb1b1" stroke="#fff" stroke-width="1" />
<title>math.Tan
累积: 6390.00ms (26.5%)
自身: 0.00ms (0.0%)
</title>
<text x="0.0" y="21.0" class="node-text" text-anchor="middle">math.Tan</text>
</g>
<g class="node" transform="translate(1145.6,40.0)">
<circle r="5.0" fill="#ff9696" stroke="#fff" stroke-width="1" />
<title>runtime.(*scavengerState).init.func3
累积: 10.00ms (0.0%)
自身: 0.00ms (0.0%)
</title>
<text x="0.0" y="17.0" class="node-text" text-anchor="middle">runtime.(*scaveng...</text>
</g>
<g class="node" transform="translate(1053.1,364.0)">
<circle r="5.7" fill="#ff9a9a" stroke="#fff" stroke-width="1" />
<title>main.multiplyMatrices
累积: 1060.00ms (4.4%)
自身: 0.00ms (0.0%)
</title>
<text x="0.0" y="17.7" class="node-text" text-anchor="middle">main.multiplyMatr...</text>
</g>
<g class="node" transform="translate(1160.0,636.5)">
<circle r="5.0" fill="#ff9696" stroke="#fff" stroke-width="1" />
<title>runtime.lock2
累积: 10.00ms (0.0%)
自身: 0.00ms (0.0%)
</title>
<text x="0.0" y="17.0" class="node-text" text-anchor="middle">runtime.lock2</text>
</g>
<g class="node" transform="translate(765.4,670.4)">
<circle r="5.0" fill="#ff9696" stroke="#fff" stroke-width="1" />
<title>runtime.deductSweepCredit
累积: 10.00ms (0.0%)
自身: 0.00ms (0.0%)
</title>
<text x="0.0" y="17.0" class="node-text" text-anchor="middle">runtime.deductSwe...</text>
</g>
<g class="node" transform="translate(205.6,592.5)">
<circle r="5.0" fill="#ff9696" stroke="#fff" stroke-width="1" />
<title>google.golang.org/grpc.prepareMsg
累积: 10.00ms (0.0%)
自身: 0.00ms (0.0%)
</title>
<text x="0.0" y="17.0" class="node-text" text-anchor="middle">google.golang.org...</text>
</g>
<g class="node" transform="translate(40.0,414.8)">
<circle r="5.0" fill="#ff9696" stroke="#fff" stroke-width="1" />
<title>runtime.(*pageAlloc).free
累积: 20.00ms (0.1%)
自身: 0.00ms (0.0%)
</title>
<text x="0.0" y="17.0" class="node-text" text-anchor="middle">runtime.(*pageAll...</text>
</g>
<g class="node" transform="translate(1160.0,686.6)">
<circle r="5.0" fill="#ff9696" stroke="#fff" stroke-width="1" />
<title>runtime.asyncPreempt
累积: 20.00ms (0.1%)
自身: 0.00ms (0.0%)
</title>
<text x="0.0" y="17.0" class="node-text" text-anchor="middle">runtime.asyncPreempt</text>
</g>
<g class="node" transform="translate(40.0,542.6)">
<circle r="5.0" fill="#ff9696" stroke="#fff" stroke-width="1" />
<title>runtime.(*timeHistogram).record
累积: 10.00ms (0.0%)
自身: 0.00ms (0.0%)
</title>
<text x="0.0" y="17.0" class="node-text" text-anchor="middle">runtime.(*timeHis...</text>
</g>
<g class="node" transform="translate(1083.0,40.0)">
<circle r="5.3" fill="#ff9797" stroke="#fff" stroke-width="1" />
<title>math.ldexp
累积: 430.00ms (1.8%)
自身: 0.00ms (0.0%)
</title>
<text x="0.0" y="17.3" class="node-text" text-anchor="middle">math.ldexp</text>
</g>
<g class="node" transform="translate(285.7,40.0)">
<circle r="5.0" fill="#ff9696" stroke="#fff" stroke-width="1" />
<title>runtime.packPallocSum
累积: 10.00ms (0.0%)
自身: 0.00ms (0.0%)
</title>
<text x="0.0" y="17.0" class="node-text" text-anchor="middle">runtime.packPallo...</text>
</g>
<g class="node" transform="translate(272.5,40.0)">
<circle r="5.1" fill="#ff9797" stroke="#fff" stroke-width="1" />
<title>math.Cos
累积: 240.00ms (1.0%)
自身: 0.00ms (0.0%)
</title>
<text x="0.0" y="17.1" class="node-text" text-anchor="middle">math.Cos</text>
</g>
<g class="node" transform="translate(111.2,40.0)">
<circle r="5.0" fill="#ff9696" stroke="#fff" stroke-width="1" />
<title>google.golang.org/protobuf/encoding/protowire.AppendString
累积: 10.00ms (0.0%)
自身: 0.00ms (0.0%)
</title>
<text x="0.0" y="17.0" class="node-text" text-anchor="middle">google.golang.org...</text>
</g>
<g class="node" transform="translate(595.2,760.0)">
<circle r="8.9" fill="#ffb1b1" stroke="#fff" stroke-width="1" />
<title>math.tan
累积: 6240.00ms (25.9%)
自身: 0.00ms (0.0%)
</title>
<text x="0.0" y="20.9" class="node-text" text-anchor="middle">math.tan</text>
</g>
<g class="node" transform="translate(1075.4,760.0)">
<circle r="5.0" fill="#ff9696" stroke="#fff" stroke-width="1" />
<title>runtime.(*mSpanStateBox).get
累积: 10.00ms (0.0%)
自身: 0.00ms (0.0%)
</title>
<text x="0.0" y="17.0" class="node-text" text-anchor="middle">runtime.(*mSpanSt...</text>
</g>
<g class="node" transform="translate(467.9,40.0)">
<circle r="5.0" fill="#ff9696" stroke="#fff" stroke-width="1" />
<title>google.golang.org/protobuf/internal/impl.(*MessageInfo).marshalAppendPointer
累积: 20.00ms (0.1%)
自身: 0.00ms (0.0%)
</title>
<text x="0.0" y="17.0" class="node-text" text-anchor="middle">google.golang.org...</text>
</g>
<g class="node" transform="translate(594.3,526.4)">
<circle r="5.2" fill="#ff9797" stroke="#fff" stroke-width="1" />
<title>runtime.bgsweep
累积: 310.00ms (1.3%)
自身: 0.00ms (0.0%)
</title>
<text x="0.0" y="17.2" class="node-text" text-anchor="middle">runtime.bgsweep</text>
</g>
<g class="node" transform="translate(1102.2,40.0)">
<circle r="5.0" fill="#ff9696" stroke="#fff" stroke-width="1" />
<title>runtime.traceAllocFreeEnabled
累积: 20.00ms (0.1%)
自身: 0.00ms (0.0%)
</title>
<text x="0.0" y="17.0" class="node-text" text-anchor="middle">runtime.traceAllo...</text>
</g>
<g class="node" transform="translate(204.6,760.0)">
<circle r="5.0" fill="#ff9696" stroke="#fff" stroke-width="1" />
<title>skywalking.apache.org/repo/goapi/collect/language/agent/v3.(*meterReportServiceCollectBatchClient).Send
累积: 10.00ms (0.0%)
自身: 0.00ms (0.0%)
</title>
<text x="0.0" y="17.0" class="node-text" text-anchor="middle">skywalking.apache...</text>
</g>
<g class="node" transform="translate(884.8,335.7)">
<circle r="5.1" fill="#ff9696" stroke="#fff" stroke-width="1" />
<title>runtime.(*timers).run
累积: 120.00ms (0.5%)
自身: 0.00ms (0.0%)
</title>
<text x="0.0" y="17.1" class="node-text" text-anchor="middle">runtime.(*timers)...</text>
</g>
<g class="node" transform="translate(1160.0,120.7)">
<circle r="5.0" fill="#ff9696" stroke="#fff" stroke-width="1" />
<title>runtime.profilealloc
累积: 10.00ms (0.0%)
自身: 0.00ms (0.0%)
</title>
<text x="0.0" y="17.0" class="node-text" text-anchor="middle">runtime.profilealloc</text>
</g>
<g class="node" transform="translate(40.0,714.1)">
<circle r="5.1" fill="#ff9696" stroke="#fff" stroke-width="1" />
<title>math.normalize
累积: 170.00ms (0.7%)
自身: 0.00ms (0.0%)
</title>
<text x="0.0" y="17.1" class="node-text" text-anchor="middle">math.normalize</text>
</g>
<g class="node" transform="translate(966.7,40.0)">
<circle r="5.0" fill="#ff9696" stroke="#fff" stroke-width="1" />
<title>runtime.mallocgcSmallScanHeader
累积: 10.00ms (0.0%)
自身: 0.00ms (0.0%)
</title>
<text x="0.0" y="17.0" class="node-text" text-anchor="middle">runtime.mallocgcS...</text>
</g>
<g class="node" transform="translate(40.0,650.5)">
<circle r="5.0" fill="#ff9696" stroke="#fff" stroke-width="1" />
<title>runtime/pprof.readProfile
累积: 10.00ms (0.0%)
自身: 0.00ms (0.0%)
</title>
<text x="0.0" y="17.0" class="node-text" text-anchor="middle">runtime/pprof.rea...</text>
</g>
<g class="node" transform="translate(40.0,683.6)">
<circle r="5.0" fill="#ff9696" stroke="#fff" stroke-width="1" />
<title>runtime.goroutineReady
累积: 20.00ms (0.1%)
自身: 0.00ms (0.0%)
</title>
<text x="0.0" y="17.0" class="node-text" text-anchor="middle">runtime.goroutine...</text>
</g>
<g class="node" transform="translate(999.3,760.0)">
<circle r="5.0" fill="#ff9696" stroke="#fff" stroke-width="1" />
<title>runtime.lockWithRank
累积: 10.00ms (0.0%)
自身: 0.00ms (0.0%)
</title>
<text x="0.0" y="17.0" class="node-text" text-anchor="middle">runtime.lockWithRank</text>
</g>
<g class="node" transform="translate(318.8,40.0)">
<circle r="5.0" fill="#ff9696" stroke="#fff" stroke-width="1" />
<title>github.com/golang/protobuf/proto.marshalAppend
累积: 10.00ms (0.0%)
自身: 0.00ms (0.0%)
</title>
<text x="0.0" y="17.0" class="node-text" text-anchor="middle">github.com/golang...</text>
</g>
<g class="node" transform="translate(406.0,40.0)">
<circle r="5.0" fill="#ff9696" stroke="#fff" stroke-width="1" />
<title>google.golang.org/protobuf/proto.MarshalOptions.MarshalAppend
累积: 10.00ms (0.0%)
自身: 0.00ms (0.0%)
</title>
<text x="0.0" y="17.0" class="node-text" text-anchor="middle">google.golang.org...</text>
</g>
<g class="node" transform="translate(158.7,760.0)">
<circle r="5.0" fill="#ff9696" stroke="#fff" stroke-width="1" />
<title>runtime.memclrNoHeapPointers
累积: 40.00ms (0.2%)
自身: 0.00ms (0.0%)
</title>
<text x="0.0" y="17.0" class="node-text" text-anchor="middle">runtime.memclrNoH...</text>
</g>
<g class="node" transform="translate(901.7,760.0)">
<circle r="5.1" fill="#ff9696" stroke="#fff" stroke-width="1" />
<title>math.frexp
累积: 150.00ms (0.6%)
自身: 0.00ms (0.0%)
</title>
<text x="0.0" y="17.1" class="node-text" text-anchor="middle">math.frexp</text>
</g>
<g class="node" transform="translate(633.5,40.0)">
<circle r="5.1" fill="#ff9797" stroke="#fff" stroke-width="1" />
<title>math.cos
累积: 230.00ms (1.0%)
自身: 0.00ms (0.0%)
</title>
<text x="0.0" y="17.1" class="node-text" text-anchor="middle">math.cos</text>
</g>
<g class="node" transform="translate(411.2,760.0)">
<circle r="6.2" fill="#ff9e9e" stroke="#fff" stroke-width="1" />
<title>math.log
累积: 1990.00ms (8.3%)
自身: 0.00ms (0.0%)
</title>
<text x="0.0" y="18.2" class="node-text" text-anchor="middle">math.log</text>
</g>
<g class="node" transform="translate(425.5,760.0)">
<circle r="5.0" fill="#ff9696" stroke="#fff" stroke-width="1" />
<title>github.com/apache/skywalking-go/agent/reporter.(*gRPCReporter).initSendPipeline.func2
累积: 10.00ms (0.0%)
自身: 0.00ms (0.0%)
</title>
<text x="0.0" y="17.0" class="node-text" text-anchor="middle">github.com/apache...</text>
</g>
<g class="node" transform="translate(1160.0,760.0)">
<circle r="5.0" fill="#ff9696" stroke="#fff" stroke-width="1" />
<title>runtime.netpoll
累积: 10.00ms (0.0%)
自身: 0.00ms (0.0%)
</title>
<text x="0.0" y="17.0" class="node-text" text-anchor="middle">runtime.netpoll</text>
</g>
<g class="node" transform="translate(75.6,760.0)">
<circle r="5.0" fill="#ff9696" stroke="#fff" stroke-width="1" />
<title>runtime.(*scavengeIndex).free
累积: 10.00ms (0.0%)
自身: 0.00ms (0.0%)
</title>
<text x="0.0" y="17.0" class="node-text" text-anchor="middle">runtime.(*scaveng...</text>
</g>
<g class="node" transform="translate(122.6,760.0)">
<circle r="5.0" fill="#ff9696" stroke="#fff" stroke-width="1" />
<title>google.golang.org/grpc.(*clientStream).SendMsg
累积: 10.00ms (0.0%)
自身: 0.00ms (0.0%)
</title>
<text x="0.0" y="17.0" class="node-text" text-anchor="middle">google.golang.org...</text>
</g>
<g class="node" transform="translate(601.6,271.2)">
<circle r="12.5" fill="#ffcaca" stroke="#fff" stroke-width="1" />
<title>math.Pow
累积: 12050.00ms (50.0%)
自身: 0.00ms (0.0%)
</title>
<text x="0.0" y="24.5" class="node-text" text-anchor="middle">math.Pow</text>
</g>
<g class="node" transform="translate(1101.1,760.0)">
<circle r="5.1" fill="#ff9696" stroke="#fff" stroke-width="1" />
<title>math.Float64frombits
累积: 210.00ms (0.9%)
自身: 0.00ms (0.0%)
</title>
<text x="0.0" y="17.1" class="node-text" text-anchor="middle">math.Float64frombits</text>
</g>
<g class="node" transform="translate(1160.0,709.9)">
<circle r="5.0" fill="#ff9696" stroke="#fff" stroke-width="1" />
<title>runtime.startTheWorldWithSema
累积: 10.00ms (0.0%)
自身: 0.00ms (0.0%)
</title>
<text x="0.0" y="17.0" class="node-text" text-anchor="middle">runtime.startTheW...</text>
</g>
<g class="node" transform="translate(1160.0,760.0)">
<circle r="5.0" fill="#ff9696" stroke="#fff" stroke-width="1" />
<title>runtime.kevent
累积: 10.00ms (0.0%)
自身: 0.00ms (0.0%)
</title>
<text x="0.0" y="17.0" class="node-text" text-anchor="middle">runtime.kevent</text>
</g>
<g class="node" transform="translate(40.0,274.4)">
<circle r="5.0" fill="#ff9696" stroke="#fff" stroke-width="1" />
<title>runtime.goschedIfBusy
累积: 40.00ms (0.2%)
自身: 0.00ms (0.0%)
</title>
<text x="0.0" y="17.0" class="node-text" text-anchor="middle">runtime.goschedIf...</text>
</g>
<g class="node" transform="translate(1160.0,661.9)">
<circle r="5.2" fill="#ff9797" stroke="#fff" stroke-width="1" />
<title>math.IsNaN
累积: 390.00ms (1.6%)
自身: 0.00ms (0.0%)
</title>
<text x="0.0" y="17.2" class="node-text" text-anchor="middle">math.IsNaN</text>
</g>
<g class="node" transform="translate(296.0,202.2)">
<circle r="5.3" fill="#ff9797" stroke="#fff" stroke-width="1" />
<title>runtime.goschedImpl
累积: 430.00ms (1.8%)
自身: 0.00ms (0.0%)
</title>
<text x="0.0" y="17.3" class="node-text" text-anchor="middle">runtime.goschedImpl</text>
</g>
<g class="node" transform="translate(1160.0,760.0)">
<circle r="5.0" fill="#ff9696" stroke="#fff" stroke-width="1" />
<title>runtime.(*spanSet).pop
累积: 30.00ms (0.1%)
自身: 0.00ms (0.0%)
</title>
<text x="0.0" y="17.0" class="node-text" text-anchor="middle">runtime.(*spanSet...</text>
</g>
<g class="node" transform="translate(40.0,737.8)">
<circle r="6.7" fill="#ffa1a1" stroke="#fff" stroke-width="1" />
<title>main.main
累积: 2660.00ms (11.0%)
自身: 0.00ms (0.0%)
</title>
<text x="0.0" y="18.7" class="node-text" text-anchor="middle">main.main</text>
</g>
<g class="node" transform="translate(40.0,130.8)">
<circle r="5.0" fill="#ff9696" stroke="#fff" stroke-width="1" />
<title>runtime.(*spanSet).push
累积: 20.00ms (0.1%)
自身: 0.00ms (0.0%)
</title>
<text x="0.0" y="17.0" class="node-text" text-anchor="middle">runtime.(*spanSet...</text>
</g>
<g class="node" transform="translate(454.9,40.0)">
<circle r="5.0" fill="#ff9696" stroke="#fff" stroke-width="1" />
<title>runtime.wakep
累积: 30.00ms (0.1%)
自身: 0.00ms (0.0%)
</title>
<text x="0.0" y="17.0" class="node-text" text-anchor="middle">runtime.wakep</text>
</g>
<g class="node" transform="translate(1160.0,40.0)">
<circle r="5.0" fill="#ff9696" stroke="#fff" stroke-width="1" />
<title>internal/runtime/atomic.(*UnsafePointer).StoreNoWB
累积: 10.00ms (0.0%)
自身: 0.00ms (0.0%)
</title>
<text x="0.0" y="17.0" class="node-text" text-anchor="middle">internal/runtime/...</text>
</g>
<g class="node" transform="translate(515.1,416.3)">
<circle r="20.0" fill="#ffffff" stroke="#fff" stroke-width="1" />
<title>runtime.main
累积: 24110.00ms (100.0%)
自身: 0.00ms (0.0%)
</title>
<text x="0.0" y="32.0" class="node-text" text-anchor="middle">runtime.main</text>
</g>
<g class="node" transform="translate(40.0,292.8)">
<circle r="5.3" fill="#ff9797" stroke="#fff" stroke-width="1" />
<title>runtime.morestack
累积: 410.00ms (1.7%)
自身: 0.00ms (0.0%)
</title>
<text x="0.0" y="17.3" class="node-text" text-anchor="middle">runtime.morestack</text>
</g>
<g class="node" transform="translate(436.9,40.0)">
<circle r="5.0" fill="#ff9696" stroke="#fff" stroke-width="1" />
<title>runtime.(*mspan).countAlloc
累积: 30.00ms (0.1%)
自身: 0.00ms (0.0%)
</title>
<text x="0.0" y="17.0" class="node-text" text-anchor="middle">runtime.(*mspan)....</text>
</g>
<g class="node" transform="translate(934.1,760.0)">
<circle r="5.0" fill="#ff9696" stroke="#fff" stroke-width="1" />
<title>runtime.(*mheap).alloc.func1
累积: 60.00ms (0.2%)
自身: 0.00ms (0.0%)
</title>
<text x="0.0" y="17.0" class="node-text" text-anchor="middle">runtime.(*mheap)....</text>
</g>
<g class="node" transform="translate(40.0,40.0)">
<circle r="11.2" fill="#ffc1c1" stroke="#fff" stroke-width="1" />
<title>math.pow
累积: 9910.00ms (41.1%)
自身: 0.00ms (0.0%)
</title>
<text x="0.0" y="23.2" class="node-text" text-anchor="middle">math.pow</text>
</g>
<g class="node" transform="translate(40.0,66.8)">
<circle r="5.7" fill="#ff9b9b" stroke="#fff" stroke-width="1" />
<title>math.IsInf
累积: 1180.00ms (4.9%)
自身: 0.00ms (0.0%)
</title>
<text x="0.0" y="17.7" class="node-text" text-anchor="middle">math.IsInf</text>
</g>
<g class="node" transform="translate(1160.0,587.9)">
<circle r="5.0" fill="#ff9696" stroke="#fff" stroke-width="1" />
<title>runtime.unlockWithRank
累积: 10.00ms (0.0%)
自身: 0.00ms (0.0%)
</title>
<text x="0.0" y="17.0" class="node-text" text-anchor="middle">runtime.unlockWit...</text>
</g>
<g class="node" transform="translate(719.6,40.0)">
<circle r="5.0" fill="#ff9696" stroke="#fff" stroke-width="1" />
<title>google.golang.org/protobuf/internal/impl.appendMessageSliceInfo
累积: 10.00ms (0.0%)
自身: 0.00ms (0.0%)
</title>
<text x="0.0" y="17.0" class="node-text" text-anchor="middle">google.golang.org...</text>
</g>
<g class="node" transform="translate(1063.4,40.0)">
<circle r="5.0" fill="#ff9696" stroke="#fff" stroke-width="1" />
<title>runtime.nanotime1
累积: 40.00ms (0.2%)
自身: 0.00ms (0.0%)
</title>
<text x="0.0" y="17.0" class="node-text" text-anchor="middle">runtime.nanotime1</text>
</g>
<g class="node" transform="translate(1010.6,40.0)">
<circle r="5.0" fill="#ff9696" stroke="#fff" stroke-width="1" />
<title>runtime.nanotime
累积: 40.00ms (0.2%)
自身: 0.00ms (0.0%)
</title>
<text x="0.0" y="17.0" class="node-text" text-anchor="middle">runtime.nanotime</text>
</g>
<g class="node" transform="translate(870.5,40.0)">
<circle r="5.0" fill="#ff9696" stroke="#fff" stroke-width="1" />
<title>runtime.makeslice
累积: 80.00ms (0.3%)
自身: 0.00ms (0.0%)
</title>
<text x="0.0" y="17.0" class="node-text" text-anchor="middle">runtime.makeslice</text>
</g>
<g class="node" transform="translate(685.1,480.9)">
<circle r="5.5" fill="#ff9999" stroke="#fff" stroke-width="1" />
<title>math.Ldexp
累积: 750.00ms (3.1%)
自身: 0.00ms (0.0%)
</title>
<text x="0.0" y="17.5" class="node-text" text-anchor="middle">math.Ldexp</text>
</g>
<g class="node" transform="translate(1124.9,760.0)">
<circle r="5.0" fill="#ff9696" stroke="#fff" stroke-width="1" />
<title>runtime.(*activeSweep).begin
累积: 10.00ms (0.0%)
自身: 0.00ms (0.0%)
</title>
<text x="0.0" y="17.0" class="node-text" text-anchor="middle">runtime.(*activeS...</text>
</g>
<g class="node" transform="translate(1160.0,40.0)">
<circle r="5.1" fill="#ff9696" stroke="#fff" stroke-width="1" />
<title>math.archModf
累积: 140.00ms (0.6%)
自身: 0.00ms (0.0%)
</title>
<text x="0.0" y="17.1" class="node-text" text-anchor="middle">math.archModf</text>
</g>
<g class="node" transform="translate(56.1,40.0)">
<circle r="5.0" fill="#ff9696" stroke="#fff" stroke-width="1" />
<title>runtime.(*pageAlloc).update
累积: 10.00ms (0.0%)
自身: 0.00ms (0.0%)
</title>
<text x="0.0" y="17.0" class="node-text" text-anchor="middle">runtime.(*pageAll...</text>
</g>
<g class="node" transform="translate(40.0,760.0)">
<circle r="5.0" fill="#ff9696" stroke="#fff" stroke-width="1" />
<title>math.trigReduce
累积: 60.00ms (0.2%)
自身: 0.00ms (0.0%)
</title>
<text x="0.0" y="17.0" class="node-text" text-anchor="middle">math.trigReduce</text>
</g>
<g class="node" transform="translate(657.6,40.0)">
<circle r="5.0" fill="#ff9696" stroke="#fff" stroke-width="1" />
<title>runtime.pidleget
累积: 20.00ms (0.1%)
自身: 0.00ms (0.0%)
</title>
<text x="0.0" y="17.0" class="node-text" text-anchor="middle">runtime.pidleget</text>
</g>
<g class="node" transform="translate(1039.1,40.0)">
<circle r="5.0" fill="#ff9696" stroke="#fff" stroke-width="1" />
<title>runtime.(*timers).deleteMin
累积: 10.00ms (0.0%)
自身: 0.00ms (0.0%)
</title>
<text x="0.0" y="17.0" class="node-text" text-anchor="middle">runtime.(*timers)...</text>
</g>
<g class="node" transform="translate(681.1,40.0)">
<circle r="5.0" fill="#ff9696" stroke="#fff" stroke-width="1" />
<title>google.golang.org/protobuf/proto.MarshalOptions.marshal
累积: 10.00ms (0.0%)
自身: 0.00ms (0.0%)
</title>
<text x="0.0" y="17.0" class="node-text" text-anchor="middle">google.golang.org...</text>
</g>
<g class="node" transform="translate(1160.0,357.3)">
<circle r="5.0" fill="#ff9696" stroke="#fff" stroke-width="1" />
<title>runtime.bgscavenge
累积: 10.00ms (0.0%)
自身: 0.00ms (0.0%)
</title>
<text x="0.0" y="17.0" class="node-text" text-anchor="middle">runtime.bgscavenge</text>
</g>
<g class="node" transform="translate(492.5,475.4)">
<circle r="5.1" fill="#ff9696" stroke="#fff" stroke-width="1" />
<title>runtime.(*sweepLocked).sweep
累积: 90.00ms (0.4%)
自身: 0.00ms (0.0%)
</title>
<text x="0.0" y="17.1" class="node-text" text-anchor="middle">runtime.(*sweepLo...</text>
</g>
<g class="node" transform="translate(1020.2,760.0)">
<circle r="5.0" fill="#ff9696" stroke="#fff" stroke-width="1" />
<title>runtime.madvise
累积: 60.00ms (0.2%)
自身: 0.00ms (0.0%)
</title>
<text x="0.0" y="17.0" class="node-text" text-anchor="middle">runtime.madvise</text>
</g>
<g class="node" transform="translate(197.5,40.0)">
<circle r="5.3" fill="#ff9797" stroke="#fff" stroke-width="1" />
<title>runtime.gopreempt_m
累积: 430.00ms (1.8%)
自身: 0.00ms (0.0%)
</title>
<text x="0.0" y="17.3" class="node-text" text-anchor="middle">runtime.gopreempt_m</text>
</g>
<g class="node" transform="translate(494.7,351.9)">
<circle r="5.0" fill="#ff9696" stroke="#fff" stroke-width="1" />
<title>runtime.(*timer).unlockAndRun
累积: 70.00ms (0.3%)
自身: 0.00ms (0.0%)
</title>
<text x="0.0" y="17.0" class="node-text" text-anchor="middle">runtime.(*timer)....</text>
</g>
<g class="node" transform="translate(287.6,444.0)">
<circle r="6.7" fill="#ffa1a1" stroke="#fff" stroke-width="1" />
<title>math.Log
累积: 2730.00ms (11.3%)
自身: 0.00ms (0.0%)
</title>
<text x="0.0" y="18.7" class="node-text" text-anchor="middle">math.Log</text>
</g>
<g class="node" transform="translate(40.0,264.3)">
<circle r="5.0" fill="#ff9696" stroke="#fff" stroke-width="1" />
<title>runtime.execute
累积: 40.00ms (0.2%)
自身: 0.00ms (0.0%)
</title>
<text x="0.0" y="17.0" class="node-text" text-anchor="middle">runtime.execute</text>
</g>
<g class="node" transform="translate(424.1,40.0)">
<circle r="5.0" fill="#ff9696" stroke="#fff" stroke-width="1" />
<title>runtime.pidlegetSpinning
累积: 30.00ms (0.1%)
自身: 0.00ms (0.0%)
</title>
<text x="0.0" y="17.0" class="node-text" text-anchor="middle">runtime.pidlegetS...</text>
</g>
<g class="node" transform="translate(868.2,200.2)">
<circle r="5.0" fill="#ff9696" stroke="#fff" stroke-width="1" />
<title>runtime.mallocgc
累积: 70.00ms (0.3%)
自身: 0.00ms (0.0%)
</title>
<text x="0.0" y="17.0" class="node-text" text-anchor="middle">runtime.mallocgc</text>
</g>
<g class="node" transform="translate(793.4,459.7)">
<circle r="5.2" fill="#ff9797" stroke="#fff" stroke-width="1" />
<title>runtime.sweepone
累积: 270.00ms (1.1%)
自身: 0.00ms (0.0%)
</title>
<text x="0.0" y="17.2" class="node-text" text-anchor="middle">runtime.sweepone</text>
</g>
<g class="node" transform="translate(1160.0,40.0)">
<circle r="5.0" fill="#ff9696" stroke="#fff" stroke-width="1" />
<title>internal/runtime/atomic.(*UnsafePointer).Load
累积: 10.00ms (0.0%)
自身: 0.00ms (0.0%)
</title>
<text x="0.0" y="17.0" class="node-text" text-anchor="middle">internal/runtime/...</text>
</g>
<g class="node" transform="translate(865.2,432.3)">
<circle r="5.1" fill="#ff9696" stroke="#fff" stroke-width="1" />
<title>runtime.systemstack
累积: 120.00ms (0.5%)
自身: 0.00ms (0.0%)
</title>
<text x="0.0" y="17.1" class="node-text" text-anchor="middle">runtime.systemstack</text>
</g>
<g class="node" transform="translate(1160.0,203.0)">
<circle r="5.0" fill="#ff9696" stroke="#fff" stroke-width="1" />
<title>runtime.(*mcache).nextFree
累积: 20.00ms (0.1%)
自身: 0.00ms (0.0%)
</title>
<text x="0.0" y="17.0" class="node-text" text-anchor="middle">runtime.(*mcache)...</text>
</g>
<g class="node" transform="translate(1160.0,151.9)">
<circle r="5.0" fill="#ff9696" stroke="#fff" stroke-width="1" />
<title>runtime.(*scavengerState).run
累积: 10.00ms (0.0%)
自身: 0.00ms (0.0%)
</title>
<text x="0.0" y="17.0" class="node-text" text-anchor="middle">runtime.(*scaveng...</text>
</g>
<g class="node" transform="translate(67.3,40.0)">
<circle r="5.0" fill="#ff9696" stroke="#fff" stroke-width="1" />
<title>runtime.memmove
累积: 10.00ms (0.0%)
自身: 0.00ms (0.0%)
</title>
<text x="0.0" y="17.0" class="node-text" text-anchor="middle">runtime.memmove</text>
</g>
<g class="node" transform="translate(40.0,760.0)">
<circle r="5.0" fill="#ff9696" stroke="#fff" stroke-width="1" />
<title>runtime.runqget
累积: 40.00ms (0.2%)
自身: 0.00ms (0.0%)
</title>
<text x="0.0" y="17.0" class="node-text" text-anchor="middle">runtime.runqget</text>
</g>
<g class="node" transform="translate(1133.8,40.0)">
<circle r="5.0" fill="#ff9696" stroke="#fff" stroke-width="1" />
<title>runtime.(*timers).siftDown
累积: 10.00ms (0.0%)
自身: 0.00ms (0.0%)
</title>
<text x="0.0" y="17.0" class="node-text" text-anchor="middle">runtime.(*timers)...</text>
</g>
<g class="node" transform="translate(1160.0,760.0)">
<circle r="5.0" fill="#ff9696" stroke="#fff" stroke-width="1" />
<title>math.Float64bits
累积: 60.00ms (0.2%)
自身: 0.00ms (0.0%)
</title>
<text x="0.0" y="17.0" class="node-text" text-anchor="middle">math.Float64bits</text>
</g>
<g class="node" transform="translate(835.8,760.0)">
<circle r="5.0" fill="#ff9696" stroke="#fff" stroke-width="1" />
<title>runtime.sysUsedOS
累积: 60.00ms (0.2%)
自身: 0.00ms (0.0%)
</title>
<text x="0.0" y="17.0" class="node-text" text-anchor="middle">runtime.sysUsedOS</text>
</g>
<g class="node" transform="translate(40.0,254.6)">
<circle r="5.0" fill="#ff9696" stroke="#fff" stroke-width="1" />
<title>runtime.casgstatus
累积: 20.00ms (0.1%)
自身: 0.00ms (0.0%)
</title>
<text x="0.0" y="17.0" class="node-text" text-anchor="middle">runtime.casgstatus</text>
</g>
<g class="node" transform="translate(1160.0,91.9)">
<circle r="5.0" fill="#ff9696" stroke="#fff" stroke-width="1" />
<title>runtime.libcCall
累积: 10.00ms (0.0%)
自身: 0.00ms (0.0%)
</title>
<text x="0.0" y="17.0" class="node-text" text-anchor="middle">runtime.libcCall</text>
</g>
<g class="node" transform="translate(877.1,760.0)">
<circle r="5.0" fill="#ff9696" stroke="#fff" stroke-width="1" />
<title>runtime/pprof.(*profileBuilder).addCPUData
累积: 10.00ms (0.0%)
自身: 0.00ms (0.0%)
</title>
<text x="0.0" y="17.0" class="node-text" text-anchor="middle">runtime/pprof.(*p...</text>
</g>
<g class="node" transform="translate(1068.5,304.9)">
<circle r="5.1" fill="#ff9696" stroke="#fff" stroke-width="1" />
<title>runtime.(*timers).check
累积: 170.00ms (0.7%)
自身: 0.00ms (0.0%)
</title>
<text x="0.0" y="17.1" class="node-text" text-anchor="middle">runtime.(*timers)...</text>
</g>
<g class="node" transform="translate(1160.0,348.2)">
<circle r="5.0" fill="#ff9696" stroke="#fff" stroke-width="1" />
<title>runtime.(*mcache).refill
累积: 20.00ms (0.1%)
自身: 0.00ms (0.0%)
</title>
<text x="0.0" y="17.0" class="node-text" text-anchor="middle">runtime.(*mcache)...</text>
</g>
<g class="node" transform="translate(746.8,405.9)">
<circle r="5.0" fill="#ff9696" stroke="#fff" stroke-width="1" />
<title>runtime.mallocgcSmallNoscan
累积: 60.00ms (0.2%)
自身: 0.00ms (0.0%)
</title>
<text x="0.0" y="17.0" class="node-text" text-anchor="middle">runtime.mallocgcS...</text>
</g>
<g class="node" transform="translate(561.1,94.6)">
<circle r="5.0" fill="#ff9696" stroke="#fff" stroke-width="1" />
<title>runtime.(*sweepLocked).sweep.(*mheap).freeSpan.func2
累积: 50.00ms (0.2%)
自身: 0.00ms (0.0%)
</title>
<text x="0.0" y="17.0" class="node-text" text-anchor="middle">runtime.(*sweepLo...</text>
</g>
</svg>
