<?xml version="1.0" encoding="UTF-8" standalone="no"?>
<svg width="1800" height="1500" xmlns="http://www.w3.org/2000/svg">
<style>
.node { fill: #ffffff; stroke: #d32f2f; stroke-width: 2px; }
.node.hot { fill: #ffebee; stroke: #d32f2f; stroke-width: 3px; }
.node-text { font-family: Arial; font-size: 14px; text-anchor: middle; }
.node-package { font-family: Arial; font-size: 12px; fill: #666; text-anchor: middle; }
.node-time { font-family: Arial; font-size: 12px; fill: #d32f2f; text-anchor: middle; }
.edge { stroke: #d32f2f; stroke-width: 2px; fill: none; marker-end: url(#arrowhead); }
.edge-label { font-family: Arial; font-size: 12px; fill: #d32f2f; text-anchor: middle; }
</style>
<defs>
  <marker id="arrowhead" viewBox="0 -5 10 10" refX="8" refY="0" 
          markerWidth="6" markerHeight="6" orient="auto">
    <path d="M0,-5L10,0L0,5" fill="#d32f2f"/>
  </marker>
</defs>
<path class="edge" d="M1263.3,330.0 L455.0,400.0"/>
<text class="edge-label" x="859.2" y="355.0">25.17s (8.15%)</text>
<path class="edge" d="M940.0,150.0 L1263.3,220.0"/>
<text class="edge-label" x="1101.7" y="175.0">34.91s (11.30%)</text>
<path class="edge" d="M1263.3,1050.0 L119.2,1120.0"/>
<text class="edge-label" x="691.3" y="1075.0">1.42s (0.46%)</text>
<path class="edge" d="M293.3,1050.0 L268.5,1120.0"/>
<text class="edge-label" x="280.9" y="1075.0">1.84s (0.59%)</text>
<path class="edge" d="M940.0,1050.0 L1163.8,1120.0"/>
<text class="edge-label" x="1051.9" y="1075.0">2.03s (0.66%)</text>
<path class="edge" d="M940.0,150.0 L616.7,220.0"/>
<text class="edge-label" x="778.3" y="175.0">96.48s (31.24%)</text>
<path class="edge" d="M616.7,330.0 L940.0,400.0"/>
<text class="edge-label" x="778.3" y="355.0">93.59s (30.30%)</text>
<path class="edge" d="M616.7,870.0 L293.3,940.0"/>
<text class="edge-label" x="455.0" y="895.0">2.45s (0.79%)</text>
<path class="edge" d="M940.0,150.0 L616.7,760.0"/>
<text class="edge-label" x="778.3" y="445.0">157.10s (50.87%)</text>
<path class="edge" d="M616.7,870.0 L1313.1,1120.0"/>
<text class="edge-label" x="964.9" y="985.0">132.33s (42.85%)</text>
<path class="edge" d="M1263.3,330.0 L1462.3,1120.0"/>
<text class="edge-label" x="1362.8" y="715.0">13.40s (4.34%)</text>
<path class="edge" d="M616.7,330.0 L1462.3,1120.0"/>
<text class="edge-label" x="1039.5" y="715.0">13.40s (4.34%)</text>
<path class="edge" d="M616.7,1050.0 L1462.3,1120.0"/>
<text class="edge-label" x="1039.5" y="1075.0">13.40s (4.34%)</text>
<path class="edge" d="M616.7,870.0 L1462.3,1120.0"/>
<text class="edge-label" x="1039.5" y="985.0">13.40s (4.34%)</text>
<path class="edge" d="M1586.7,1050.0 L1462.3,1120.0"/>
<text class="edge-label" x="1524.5" y="1075.0">13.40s (4.34%)</text>
<path class="edge" d="M616.7,1050.0 L1611.5,1120.0"/>
<text class="edge-label" x="1114.1" y="1075.0">3.92s (1.27%)</text>
<path class="edge" d="M1586.7,1050.0 L1611.5,1120.0"/>
<text class="edge-label" x="1599.1" y="1075.0">3.92s (1.27%)</text>
<path class="edge" d="M940.0,150.0 L417.7,1120.0"/>
<text class="edge-label" x="678.8" y="625.0">10.71s (3.47%)</text>
<path class="edge" d="M940.0,510.0 L566.9,1120.0"/>
<text class="edge-label" x="753.5" y="805.0">5.06s (1.64%)</text>
<path class="edge" d="M616.7,1050.0 L566.9,1120.0"/>
<text class="edge-label" x="591.8" y="1075.0">5.06s (1.64%)</text>
<path class="edge" d="M1586.7,1050.0 L566.9,1120.0"/>
<text class="edge-label" x="1076.8" y="1075.0">5.06s (1.64%)</text>
<path class="edge" d="M616.7,330.0 L716.2,1120.0"/>
<text class="edge-label" x="666.4" y="715.0">5.38s (1.74%)</text>
<path class="edge" d="M616.7,1050.0 L716.2,1120.0"/>
<text class="edge-label" x="666.4" y="1075.0">5.38s (1.74%)</text>
<path class="edge" d="M616.7,870.0 L716.2,1120.0"/>
<text class="edge-label" x="666.4" y="985.0">5.38s (1.74%)</text>
<path class="edge" d="M1586.7,1050.0 L716.2,1120.0"/>
<text class="edge-label" x="1151.4" y="1075.0">5.38s (1.74%)</text>
<path class="edge" d="M1263.3,330.0 L616.7,940.0"/>
<text class="edge-label" x="940.0" y="625.0">16.66s (5.40%)</text>
<path class="edge" d="M616.7,870.0 L616.7,940.0"/>
<text class="edge-label" x="616.7" y="895.0">16.66s (5.40%)</text>
<path class="edge" d="M940.0,690.0 L1263.3,760.0"/>
<text class="edge-label" x="1101.7" y="715.0">2.20s (0.71%)</text>
<path class="edge" d="M1263.3,870.0 L1263.3,940.0"/>
<text class="edge-label" x="1263.3" y="895.0">2.03s (0.66%)</text>
<path class="edge" d="M1586.7,1050.0 L865.4,1120.0"/>
<text class="edge-label" x="1226.0" y="1075.0">4.06s (1.32%)</text>
<path class="edge" d="M940.0,150.0 L1014.6,1120.0"/>
<text class="edge-label" x="977.3" y="625.0">9.95s (3.22%)</text>
<path class="edge" d="M455.0,510.0 L940.0,580.0"/>
<text class="edge-label" x="697.5" y="535.0">2.21s (0.71%)</text>
<path class="edge" d="M940.0,510.0 L940.0,580.0"/>
<text class="edge-label" x="940.0" y="535.0">2.21s (0.71%)</text>
<path class="edge" d="M1425.0,510.0 L940.0,580.0"/>
<text class="edge-label" x="1182.5" y="535.0">2.21s (0.71%)</text>
<path class="edge" d="M616.7,1050.0 L1760.8,1120.0"/>
<text class="edge-label" x="1188.7" y="1075.0">2.05s (0.66%)</text>
<path class="edge" d="M616.7,870.0 L1586.7,940.0"/>
<text class="edge-label" x="1101.7" y="895.0">8.86s (2.87%)</text>
<g transform="translate(385.0,400.0)">
<rect class="node" width="140.0" height="110.0" rx="4"/>
<text class="node-package" x="70.0" y="35.0">math</text>
<text class="node-text" x="70.0" y="55.0">log</text>
<text class="node-time" x="70.0" y="80.0">flat: 25.13s (8.14%)</text>
<text class="node-time" x="70.0" y="100.0">cum: 25.17s (8.15%)</text>
</g>
<g transform="translate(49.2,1120.0)">
<rect class="node" width="140.0" height="110.0" rx="4"/>
<text class="node-package" x="70.0" y="35.0">runtime</text>
<text class="node-text" x="70.0" y="55.0">findRunnable</text>
<text class="node-time" x="70.0" y="80.0">flat: 0.20s (0.06%)</text>
<text class="node-time" x="70.0" y="100.0">cum: 1.42s (0.46%)</text>
</g>
<g transform="translate(198.5,1120.0)">
<rect class="node" width="140.0" height="110.0" rx="4"/>
<text class="node-package" x="70.0" y="35.0">math</text>
<text class="node-text" x="70.0" y="55.0">archModf</text>
<text class="node-time" x="70.0" y="80.0">flat: 1.84s (0.59%)</text>
<text class="node-time" x="70.0" y="100.0">cum: 1.84s (0.59%)</text>
</g>
<g transform="translate(546.7,220.0)">
<rect class="node hot" width="140.0" height="110.0" rx="4"/>
<text class="node-package" x="70.0" y="35.0">math</text>
<text class="node-text" x="70.0" y="55.0">Tan</text>
<text class="node-time" x="70.0" y="80.0">flat: 0.00s (0.00%)</text>
<text class="node-time" x="70.0" y="100.0">cum: 96.48s (31.24%)</text>
</g>
<g transform="translate(223.3,940.0)">
<rect class="node" width="140.0" height="110.0" rx="4"/>
<text class="node-package" x="70.0" y="35.0">math</text>
<text class="node-text" x="70.0" y="55.0">Modf</text>
<text class="node-time" x="70.0" y="80.0">flat: 0.61s (0.20%)</text>
<text class="node-time" x="70.0" y="100.0">cum: 2.45s (0.79%)</text>
</g>
<g transform="translate(546.7,760.0)">
<rect class="node hot" width="140.0" height="110.0" rx="4"/>
<text class="node-package" x="70.0" y="35.0">math</text>
<text class="node-text" x="70.0" y="55.0">Pow</text>
<text class="node-time" x="70.0" y="80.0">flat: 0.27s (0.09%)</text>
<text class="node-time" x="70.0" y="100.0">cum: 157.10s (50.87%)</text>
</g>
<g transform="translate(347.7,1120.0)">
<rect class="node" width="140.0" height="110.0" rx="4"/>
<text class="node-package" x="70.0" y="35.0">main</text>
<text class="node-text" x="70.0" y="55.0">multiplyMatrices</text>
<text class="node-time" x="70.0" y="80.0">flat: 10.27s (3.33%)</text>
<text class="node-time" x="70.0" y="100.0">cum: 10.71s (3.47%)</text>
</g>
<g transform="translate(496.9,1120.0)">
<rect class="node" width="140.0" height="110.0" rx="4"/>
<text class="node-package" x="70.0" y="35.0">math</text>
<text class="node-text" x="70.0" y="55.0">Float64frombits</text>
<text class="node-time" x="70.0" y="80.0">flat: 5.06s (1.64%)</text>
<text class="node-time" x="70.0" y="100.0">cum: 5.06s (1.64%)</text>
</g>
<g transform="translate(646.2,1120.0)">
<rect class="node" width="140.0" height="110.0" rx="4"/>
<text class="node-package" x="70.0" y="35.0">math</text>
<text class="node-text" x="70.0" y="55.0">IsNaN</text>
<text class="node-time" x="70.0" y="80.0">flat: 5.38s (1.74%)</text>
<text class="node-time" x="70.0" y="100.0">cum: 5.38s (1.74%)</text>
</g>
<g transform="translate(546.7,940.0)">
<rect class="node" width="140.0" height="110.0" rx="4"/>
<text class="node-package" x="70.0" y="35.0">math</text>
<text class="node-text" x="70.0" y="55.0">Frexp</text>
<text class="node-time" x="70.0" y="80.0">flat: 0.24s (0.08%)</text>
<text class="node-time" x="70.0" y="100.0">cum: 16.66s (5.40%)</text>
</g>
<g transform="translate(1193.3,760.0)">
<rect class="node" width="140.0" height="110.0" rx="4"/>
<text class="node-package" x="70.0" y="35.0">runtime</text>
<text class="node-text" x="70.0" y="55.0">goschedImpl</text>
<text class="node-time" x="70.0" y="80.0">flat: 0.01s (0.00%)</text>
<text class="node-time" x="70.0" y="100.0">cum: 2.20s (0.71%)</text>
</g>
<g transform="translate(795.4,1120.0)">
<rect class="node" width="140.0" height="110.0" rx="4"/>
<text class="node-package" x="70.0" y="35.0">math</text>
<text class="node-text" x="70.0" y="55.0">ldexp</text>
<text class="node-time" x="70.0" y="80.0">flat: 4.06s (1.32%)</text>
<text class="node-time" x="70.0" y="100.0">cum: 4.06s (1.32%)</text>
</g>
<g transform="translate(944.6,1120.0)">
<rect class="node" width="140.0" height="110.0" rx="4"/>
<text class="node-package" x="70.0" y="35.0">main</text>
<text class="node-text" x="70.0" y="55.0">main</text>
<text class="node-time" x="70.0" y="80.0">flat: 9.94s (3.22%)</text>
<text class="node-time" x="70.0" y="100.0">cum: 9.95s (3.22%)</text>
</g>
<g transform="translate(870.0,580.0)">
<rect class="node" width="140.0" height="110.0" rx="4"/>
<text class="node-package" x="70.0" y="35.0">runtime</text>
<text class="node-text" x="70.0" y="55.0">gopreempt_m</text>
<text class="node-time" x="70.0" y="80.0">flat: 0.00s (0.00%)</text>
<text class="node-time" x="70.0" y="100.0">cum: 2.21s (0.71%)</text>
</g>
<g transform="translate(1193.3,220.0)">
<rect class="node hot" width="140.0" height="110.0" rx="4"/>
<text class="node-package" x="70.0" y="35.0">math</text>
<text class="node-text" x="70.0" y="55.0">Log</text>
<text class="node-time" x="70.0" y="80.0">flat: 0.00s (0.00%)</text>
<text class="node-time" x="70.0" y="100.0">cum: 34.91s (11.30%)</text>
</g>
<g transform="translate(1093.8,1120.0)">
<rect class="node" width="140.0" height="110.0" rx="4"/>
<text class="node-package" x="70.0" y="35.0">runtime</text>
<text class="node-text" x="70.0" y="55.0">sweepone</text>
<text class="node-time" x="70.0" y="80.0">flat: 0.08s (0.03%)</text>
<text class="node-time" x="70.0" y="100.0">cum: 2.03s (0.66%)</text>
</g>
<g transform="translate(870.0,400.0)">
<rect class="node hot" width="140.0" height="110.0" rx="4"/>
<text class="node-package" x="70.0" y="35.0">math</text>
<text class="node-text" x="70.0" y="55.0">tan</text>
<text class="node-time" x="70.0" y="80.0">flat: 93.22s (30.18%)</text>
<text class="node-time" x="70.0" y="100.0">cum: 93.59s (30.30%)</text>
</g>
<g transform="translate(870.0,40.0)">
<rect class="node hot" width="140.0" height="110.0" rx="4"/>
<text class="node-package" x="70.0" y="35.0">runtime</text>
<text class="node-text" x="70.0" y="55.0">main</text>
<text class="node-time" x="70.0" y="80.0">flat: 0.00s (0.00%)</text>
<text class="node-time" x="70.0" y="100.0">cum: 308.83s (100.00%)</text>
</g>
<g transform="translate(870.0,940.0)">
<rect class="node" width="140.0" height="110.0" rx="4"/>
<text class="node-package" x="70.0" y="35.0">runtime</text>
<text class="node-text" x="70.0" y="55.0">bgsweep</text>
<text class="node-time" x="70.0" y="80.0">flat: 0.10s (0.03%)</text>
<text class="node-time" x="70.0" y="100.0">cum: 2.27s (0.73%)</text>
</g>
<g transform="translate(1355.0,400.0)">
<rect class="node" width="140.0" height="110.0" rx="4"/>
<text class="node-package" x="70.0" y="35.0">runtime</text>
<text class="node-text" x="70.0" y="55.0">morestack</text>
<text class="node-time" x="70.0" y="80.0">flat: 0.00s (0.00%)</text>
<text class="node-time" x="70.0" y="100.0">cum: 2.08s (0.67%)</text>
</g>
<g transform="translate(1243.1,1120.0)">
<rect class="node hot" width="140.0" height="110.0" rx="4"/>
<text class="node-package" x="70.0" y="35.0">math</text>
<text class="node-text" x="70.0" y="55.0">pow</text>
<text class="node-time" x="70.0" y="80.0">flat: 132.31s (42.84%)</text>
<text class="node-time" x="70.0" y="100.0">cum: 132.33s (42.85%)</text>
</g>
<g transform="translate(1392.3,1120.0)">
<rect class="node" width="140.0" height="110.0" rx="4"/>
<text class="node-package" x="70.0" y="35.0">math</text>
<text class="node-text" x="70.0" y="55.0">IsInf</text>
<text class="node-time" x="70.0" y="80.0">flat: 13.40s (4.34%)</text>
<text class="node-time" x="70.0" y="100.0">cum: 13.40s (4.34%)</text>
</g>
<g transform="translate(1541.5,1120.0)">
<rect class="node" width="140.0" height="110.0" rx="4"/>
<text class="node-package" x="70.0" y="35.0">math</text>
<text class="node-text" x="70.0" y="55.0">normalize</text>
<text class="node-time" x="70.0" y="80.0">flat: 3.92s (1.27%)</text>
<text class="node-time" x="70.0" y="100.0">cum: 3.92s (1.27%)</text>
</g>
<g transform="translate(1193.3,940.0)">
<rect class="node" width="140.0" height="110.0" rx="4"/>
<text class="node-package" x="70.0" y="35.0">runtime</text>
<text class="node-text" x="70.0" y="55.0">schedule</text>
<text class="node-time" x="70.0" y="80.0">flat: 0.20s (0.06%)</text>
<text class="node-time" x="70.0" y="100.0">cum: 2.03s (0.66%)</text>
</g>
<g transform="translate(1690.8,1120.0)">
<rect class="node" width="140.0" height="110.0" rx="4"/>
<text class="node-package" x="70.0" y="35.0">math</text>
<text class="node-text" x="70.0" y="55.0">frexp</text>
<text class="node-time" x="70.0" y="80.0">flat: 2.05s (0.66%)</text>
<text class="node-time" x="70.0" y="100.0">cum: 2.05s (0.66%)</text>
</g>
<g transform="translate(1516.7,940.0)">
<rect class="node" width="140.0" height="110.0" rx="4"/>
<text class="node-package" x="70.0" y="35.0">math</text>
<text class="node-text" x="70.0" y="55.0">Ldexp</text>
<text class="node-time" x="70.0" y="80.0">flat: 0.00s (0.00%)</text>
<text class="node-time" x="70.0" y="100.0">cum: 8.86s (2.87%)</text>
</g>
</svg>
