<?xml version="1.0" encoding="UTF-8" standalone="no"?>
<svg width="1200" height="800" version="1.1" xmlns="http://www.w3.org/2000/svg">
<style>
.title { font-size: 16px; font-weight: bold; font-family: monospace; }
.subtitle { font-size: 12px; font-family: monospace; fill: #666; }
.node { cursor: pointer; }
.node:hover { opacity: 0.8; }
.node-text { font-size: 11px; font-family: monospace; pointer-events: none; }
.edge { stroke: #999; stroke-opacity: 0.6; stroke-width: 1.5px; marker-end: url(#arrowhead); }
.edge:hover { stroke-opacity: 1; }
</style>
<defs>
  <marker id="arrowhead" viewBox="0 -3 6 6" refX="6" refY="0"
          markerWidth="4" markerHeight="4" orient="auto">
    <path d="M0,-3L6,0L0,3" fill="#999"/>
  </marker>
</defs>
<text x="40" y="20" class="title">Type: cpu</text>
<text x="40" y="35" class="subtitle">69 functions, 145 edges</text>
<line class="edge" x1="1015.8" y1="760.0" x2="890.4" y2="668.6" />
<line class="edge" x1="1160.0" y1="505.3" x2="1160.0" y2="419.4" />
<line class="edge" x1="828.1" y1="760.0" x2="916.6" y2="760.0" />
<line class="edge" x1="40.0" y1="511.5" x2="40.0" y2="755.0" />
<line class="edge" x1="40.0" y1="697.5" x2="90.6" y2="756.2" />
<line class="edge" x1="491.9" y1="273.7" x2="1092.1" y2="41.9" />
<line class="edge" x1="491.9" y1="273.7" x2="44.8" y2="126.5" />
<line class="edge" x1="491.9" y1="273.7" x2="236.4" y2="755.0" />
<line class="edge" x1="582.7" y1="493.4" x2="824.6" y2="756.2" />
<line class="edge" x1="582.7" y1="493.4" x2="1093.1" y2="43.5" />
<line class="edge" x1="582.7" y1="493.4" x2="434.9" y2="300.0" />
<line class="edge" x1="582.7" y1="493.4" x2="169.3" y2="753.9" />
<line class="edge" x1="582.7" y1="493.4" x2="238.3" y2="756.6" />
<line class="edge" x1="582.7" y1="493.4" x2="503.6" y2="401.7" />
<line class="edge" x1="618.1" y1="40.0" x2="930.9" y2="176.6" />
<line class="edge" x1="754.0" y1="760.0" x2="987.7" y2="760.0" />
<line class="edge" x1="1160.0" y1="760.0" x2="1160.0" y2="510.4" />
<line class="edge" x1="902.9" y1="396.3" x2="1157.1" y2="755.9" />
<line class="edge" x1="902.9" y1="396.3" x2="628.8" y2="44.0" />
<line class="edge" x1="1042.8" y1="760.0" x2="890.7" y2="668.2" />
<line class="edge" x1="1097.0" y1="40.0" x2="1156.6" y2="107.6" />
<line class="edge" x1="837.0" y1="512.4" x2="804.7" y2="755.0" />
<line class="edge" x1="837.0" y1="512.4" x2="1155.2" y2="601.4" />
<line class="edge" x1="837.0" y1="512.4" x2="552.3" y2="247.3" />
<line class="edge" x1="431.6" y1="295.6" x2="78.7" y2="43.0" />
<line class="edge" x1="431.6" y1="295.6" x2="1092.1" y2="41.9" />
<line class="edge" x1="431.6" y1="295.6" x2="236.0" y2="754.8" />
<line class="edge" x1="431.6" y1="295.6" x2="471.6" y2="754.9" />
<line class="edge" x1="431.6" y1="295.6" x2="44.2" y2="42.8" />
<line class="edge" x1="1160.0" y1="677.3" x2="1160.0" y2="755.0" />
<line class="edge" x1="726.1" y1="579.2" x2="699.6" y2="423.1" />
<line class="edge" x1="804.0" y1="760.0" x2="938.9" y2="760.0" />
<line class="edge" x1="827.5" y1="40.0" x2="866.4" y2="40.0" />
<line class="edge" x1="1160.0" y1="86.0" x2="1160.0" y2="45.0" />
<line class="edge" x1="154.2" y1="40.0" x2="61.6" y2="40.0" />
<line class="edge" x1="791.5" y1="394.7" x2="579.5" y2="640.7" />
<line class="edge" x1="791.5" y1="394.7" x2="655.8" y2="463.6" />
<line class="edge" x1="791.5" y1="394.7" x2="594.3" y2="487.9" />
<line class="edge" x1="791.5" y1="394.7" x2="1081.7" y2="754.9" />
<line class="edge" x1="791.5" y1="394.7" x2="956.2" y2="45.1" />
<line class="edge" x1="791.5" y1="394.7" x2="620.3" y2="44.5" />
<line class="edge" x1="462.0" y1="348.6" x2="101.2" y2="43.2" />
<line class="edge" x1="462.0" y1="348.6" x2="881.7" y2="662.1" />
<line class="edge" x1="542.9" y1="494.8" x2="860.5" y2="756.8" />
<line class="edge" x1="542.9" y1="494.8" x2="338.4" y2="157.9" />
<line class="edge" x1="273.6" y1="40.0" x2="159.3" y2="40.0" />
<line class="edge" x1="800.9" y1="279.9" x2="1155.8" y2="42.8" />
<line class="edge" x1="800.9" y1="279.9" x2="1157.0" y2="756.0" />
<line class="edge" x1="800.9" y1="279.9" x2="217.6" y2="41.9" />
<line class="edge" x1="40.0" y1="153.3" x2="40.0" y2="45.0" />
<line class="edge" x1="1160.0" y1="282.9" x2="1160.0" y2="459.3" />
<line class="edge" x1="1160.0" y1="186.8" x2="1160.0" y2="277.9" />
<line class="edge" x1="1160.0" y1="645.6" x2="1160.0" y2="720.4" />
<line class="edge" x1="935.6" y1="178.7" x2="941.5" y2="350.3" />
<line class="edge" x1="548.4" y1="243.6" x2="1154.9" y2="254.0" />
<line class="edge" x1="548.4" y1="243.6" x2="613.5" y2="427.6" />
<line class="edge" x1="548.4" y1="243.6" x2="44.2" y2="584.0" />
<line class="edge" x1="548.4" y1="243.6" x2="1064.3" y2="41.8" />
<line class="edge" x1="548.4" y1="243.6" x2="45.0" y2="207.3" />
<line class="edge" x1="548.4" y1="243.6" x2="277.6" y2="43.0" />
<line class="edge" x1="625.7" y1="40.0" x2="635.6" y2="192.0" />
<line class="edge" x1="500.0" y1="397.5" x2="43.9" y2="756.9" />
<line class="edge" x1="500.0" y1="397.5" x2="78.5" y2="43.3" />
<line class="edge" x1="500.0" y1="397.5" x2="1092.5" y2="42.7" />
<line class="edge" x1="500.0" y1="397.5" x2="1155.3" y2="757.4" />
<line class="edge" x1="500.0" y1="397.5" x2="237.1" y2="755.5" />
<line class="edge" x1="500.0" y1="397.5" x2="44.0" y2="43.1" />
<line class="edge" x1="615.2" y1="432.6" x2="356.0" y2="756.1" />
<line class="edge" x1="615.2" y1="432.6" x2="1155.4" y2="188.9" />
<line class="edge" x1="615.2" y1="432.6" x2="1155.3" y2="643.8" />
<line class="edge" x1="615.2" y1="432.6" x2="44.2" y2="72.0" />
<line class="edge" x1="615.2" y1="432.6" x2="332.4" y2="756.1" />
<line class="edge" x1="40.0" y1="760.0" x2="55.6" y2="760.0" />
<line class="edge" x1="647.9" y1="467.6" x2="450.8" y2="752.8" />
<line class="edge" x1="647.9" y1="467.6" x2="1093.2" y2="43.6" />
<line class="edge" x1="647.9" y1="467.6" x2="238.4" y2="756.8" />
<line class="edge" x1="181.9" y1="760.0" x2="45.0" y2="760.0" />
<line class="edge" x1="619.2" y1="499.3" x2="79.9" y2="757.8" />
<line class="edge" x1="619.2" y1="499.3" x2="1155.6" y2="189.3" />
<line class="edge" x1="958.6" y1="40.0" x2="1155.2" y2="109.7" />
<line class="edge" x1="958.6" y1="40.0" x2="936.4" y2="173.7" />
<line class="edge" x1="40.0" y1="255.1" x2="40.0" y2="45.0" />
<line class="edge" x1="40.0" y1="255.1" x2="40.0" y2="547.5" />
<line class="edge" x1="40.0" y1="255.1" x2="123.1" y2="44.7" />
<line class="edge" x1="1160.0" y1="703.0" x2="1114.4" y2="756.2" />
<line class="edge" x1="635.9" y1="197.0" x2="697.3" y2="413.0" />
<line class="edge" x1="805.2" y1="40.0" x2="1002.0" y2="40.0" />
<line class="edge" x1="93.9" y1="760.0" x2="176.9" y2="760.0" />
<line class="edge" x1="886.0" y1="665.4" x2="838.7" y2="517.5" />
<line class="edge" x1="886.0" y1="665.4" x2="851.3" y2="755.3" />
<line class="edge" x1="40.0" y1="398.0" x2="40.0" y2="506.5" />
<line class="edge" x1="589.5" y1="380.5" x2="237.6" y2="755.9" />
<line class="edge" x1="589.5" y1="380.5" x2="973.0" y2="43.4" />
<line class="edge" x1="1160.0" y1="254.0" x2="1118.9" y2="44.9" />
<line class="edge" x1="1160.0" y1="254.0" x2="1160.0" y2="541.6" />
<line class="edge" x1="575.2" y1="645.6" x2="1009.8" y2="758.4" />
<line class="edge" x1="575.2" y1="645.6" x2="433.7" y2="300.7" />
<line class="edge" x1="575.2" y1="645.6" x2="239.1" y2="758.2" />
<line class="edge" x1="943.9" y1="760.0" x2="774.1" y2="760.0" />
<line class="edge" x1="941.7" y1="355.4" x2="1155.0" y2="326.3" />
<line class="edge" x1="941.7" y1="355.4" x2="699.6" y2="439.4" />
<line class="edge" x1="548.9" y1="315.6" x2="45.1" y2="255.7" />
<line class="edge" x1="548.9" y1="315.6" x2="795.9" y2="280.6" />
<line class="edge" x1="548.9" y1="315.6" x2="1155.4" y2="42.1" />
<line class="edge" x1="548.9" y1="315.6" x2="43.8" y2="756.7" />
<line class="edge" x1="548.9" y1="315.6" x2="1155.0" y2="369.7" />
<line class="edge" x1="548.9" y1="315.6" x2="1034.6" y2="42.5" />
<line class="edge" x1="548.9" y1="315.6" x2="44.6" y2="97.5" />
<line class="edge" x1="548.9" y1="315.6" x2="723.3" y2="575.0" />
<line class="edge" x1="548.9" y1="315.6" x2="44.6" y2="523.5" />
<line class="edge" x1="445.8" y1="760.0" x2="45.0" y2="760.0" />
<line class="edge" x1="445.8" y1="760.0" x2="880.7" y2="666.5" />
<line class="edge" x1="335.8" y1="153.6" x2="45.0" y2="153.3" />
<line class="edge" x1="335.8" y1="153.6" x2="800.3" y2="41.2" />
<line class="edge" x1="335.8" y1="153.6" x2="43.9" y2="394.8" />
<line class="edge" x1="698.7" y1="418.0" x2="1155.7" y2="700.4" />
<line class="edge" x1="698.7" y1="418.0" x2="101.6" y2="42.7" />
<line class="edge" x1="698.7" y1="418.0" x2="547.4" y2="492.5" />
<line class="edge" x1="698.7" y1="418.0" x2="1155.6" y2="674.8" />
<line class="edge" x1="698.7" y1="418.0" x2="479.3" y2="388.8" />
<line class="edge" x1="1124.1" y1="443.6" x2="1032.8" y2="286.4" />
<line class="edge" x1="1007.6" y1="390.1" x2="1157.9" y2="70.0" />
<line class="edge" x1="1007.6" y1="390.1" x2="554.1" y2="316.5" />
<line class="edge" x1="1007.6" y1="390.1" x2="1042.3" y2="755.0" />
<line class="edge" x1="1007.6" y1="390.1" x2="1158.0" y2="44.6" />
<line class="edge" x1="1007.6" y1="390.1" x2="1158.1" y2="755.4" />
<line class="edge" x1="615.7" y1="760.0" x2="1126.8" y2="760.0" />
<line class="edge" x1="615.7" y1="760.0" x2="139.9" y2="760.0" />
<line class="edge" x1="1160.0" y1="140.5" x2="1160.0" y2="91.0" />
<line class="edge" x1="1160.0" y1="325.6" x2="1125.5" y2="438.8" />
<line class="edge" x1="1160.0" y1="325.6" x2="1160.0" y2="145.5" />
<line class="edge" x1="1160.0" y1="546.6" x2="1160.0" y2="755.0" />
<line class="edge" x1="1160.0" y1="546.6" x2="1160.0" y2="306.8" />
<line class="edge" x1="864.4" y1="760.0" x2="647.0" y2="760.0" />
<line class="edge" x1="40.0" y1="586.9" x2="40.0" y2="617.1" />
<line class="edge" x1="699.1" y1="209.2" x2="698.7" y2="412.8" />
<line class="edge" x1="329.0" y1="760.0" x2="117.7" y2="760.0" />
<line class="edge" x1="329.0" y1="760.0" x2="610.7" y2="760.0" />
<line class="edge" x1="1030.2" y1="282.0" x2="906.6" y2="392.9" />
<line class="edge" x1="694.9" y1="441.1" x2="1119.0" y2="443.5" />
<line class="edge" x1="694.9" y1="441.1" x2="1155.8" y2="143.2" />
<line class="edge" x1="694.9" y1="441.1" x2="44.8" y2="656.9" />
<line class="edge" x1="474.3" y1="388.1" x2="1132.5" y2="42.3" />
<line class="edge" x1="474.3" y1="388.1" x2="44.6" y2="584.8" />
<line class="edge" x1="474.3" y1="388.1" x2="44.1" y2="694.6" />
<g class="node" transform="translate(1160.0,760.0)">
<circle r="5.0" fill="#ff9696" stroke="#fff" stroke-width="1" />
<title>internal/runtime/atomic.(*Uint64).Add
累积: 10.00ms (0.0%)
自身: 0.00ms (0.0%)
</title>
<text x="0.0" y="17.0" class="node-text" text-anchor="middle">internal/runtime/...</text>
</g>
<g class="node" transform="translate(828.1,760.0)">
<circle r="5.1" fill="#ff9696" stroke="#fff" stroke-width="1" />
<title>math.Modf
累积: 180.00ms (0.7%)
自身: 0.00ms (0.0%)
</title>
<text x="0.0" y="17.1" class="node-text" text-anchor="middle">math.Modf</text>
</g>
<g class="node" transform="translate(992.7,760.0)">
<circle r="5.0" fill="#ff9696" stroke="#fff" stroke-width="1" />
<title>time.Sleep
累积: 10.00ms (0.0%)
自身: 0.00ms (0.0%)
</title>
<text x="0.0" y="17.0" class="node-text" text-anchor="middle">time.Sleep</text>
</g>
<g class="node" transform="translate(40.0,511.5)">
<circle r="5.0" fill="#ff9696" stroke="#fff" stroke-width="1" />
<title>runtime.sysMap
累积: 10.00ms (0.0%)
自身: 0.00ms (0.0%)
</title>
<text x="0.0" y="17.0" class="node-text" text-anchor="middle">runtime.sysMap</text>
</g>
<g class="node" transform="translate(40.0,697.5)">
<circle r="5.0" fill="#ff9696" stroke="#fff" stroke-width="1" />
<title>runtime.(*mheap).freeSpanLocked
累积: 30.00ms (0.1%)
自身: 0.00ms (0.0%)
</title>
<text x="0.0" y="17.0" class="node-text" text-anchor="middle">runtime.(*mheap)....</text>
</g>
<g class="node" transform="translate(491.9,273.7)">
<circle r="5.1" fill="#ff9696" stroke="#fff" stroke-width="1" />
<title>math.Sin
累积: 100.00ms (0.4%)
自身: 0.00ms (0.0%)
</title>
<text x="0.0" y="17.1" class="node-text" text-anchor="middle">math.Sin</text>
</g>
<g class="node" transform="translate(618.1,40.0)">
<circle r="5.0" fill="#ff9696" stroke="#fff" stroke-width="1" />
<title>main.calculateMatrix
累积: 60.00ms (0.2%)
自身: 0.00ms (0.0%)
</title>
<text x="0.0" y="17.0" class="node-text" text-anchor="middle">main.calculateMatrix</text>
</g>
<g class="node" transform="translate(754.0,760.0)">
<circle r="5.0" fill="#ff9696" stroke="#fff" stroke-width="1" />
<title>runtime/pprof.profileWriter
累积: 10.00ms (0.0%)
自身: 0.00ms (0.0%)
</title>
<text x="0.0" y="17.0" class="node-text" text-anchor="middle">runtime/pprof.pro...</text>
</g>
<g class="node" transform="translate(902.9,396.3)">
<circle r="5.0" fill="#ff9696" stroke="#fff" stroke-width="1" />
<title>runtime.(*mcentral).cacheSpan
累积: 30.00ms (0.1%)
自身: 0.00ms (0.0%)
</title>
<text x="0.0" y="17.0" class="node-text" text-anchor="middle">runtime.(*mcentra...</text>
</g>
<g class="node" transform="translate(431.6,295.6)">
<circle r="5.5" fill="#ff9999" stroke="#fff" stroke-width="1" />
<title>math.Frexp
累积: 860.00ms (3.6%)
自身: 0.00ms (0.0%)
</title>
<text x="0.0" y="17.5" class="node-text" text-anchor="middle">math.Frexp</text>
</g>
<g class="node" transform="translate(1160.0,677.3)">
<circle r="5.0" fill="#ff9696" stroke="#fff" stroke-width="1" />
<title>runtime.gcStart.func4
累积: 30.00ms (0.1%)
自身: 0.00ms (0.0%)
</title>
<text x="0.0" y="17.0" class="node-text" text-anchor="middle">runtime.gcStart.f...</text>
</g>
<g class="node" transform="translate(726.1,579.2)">
<circle r="5.0" fill="#ff9696" stroke="#fff" stroke-width="1" />
<title>runtime.(*mheap).freeSpan
累积: 80.00ms (0.3%)
自身: 0.00ms (0.0%)
</title>
<text x="0.0" y="17.0" class="node-text" text-anchor="middle">runtime.(*mheap)....</text>
</g>
<g class="node" transform="translate(40.0,40.0)">
<circle r="5.0" fill="#ff9696" stroke="#fff" stroke-width="1" />
<title>runtime.newMarkBits
累积: 10.00ms (0.0%)
自身: 0.00ms (0.0%)
</title>
<text x="0.0" y="17.0" class="node-text" text-anchor="middle">runtime.newMarkBits</text>
</g>
<g class="node" transform="translate(1160.0,86.0)">
<circle r="5.0" fill="#ff9696" stroke="#fff" stroke-width="1" />
<title>runtime.mProf_Malloc
累积: 20.00ms (0.1%)
自身: 0.00ms (0.0%)
</title>
<text x="0.0" y="17.0" class="node-text" text-anchor="middle">runtime.mProf_Malloc</text>
</g>
<g class="node" transform="translate(154.2,40.0)">
<circle r="5.0" fill="#ff9696" stroke="#fff" stroke-width="1" />
<title>runtime.unlock2
累积: 10.00ms (0.0%)
自身: 0.00ms (0.0%)
</title>
<text x="0.0" y="17.0" class="node-text" text-anchor="middle">runtime.unlock2</text>
</g>
<g class="node" transform="translate(97.4,40.0)">
<circle r="5.0" fill="#ff9696" stroke="#fff" stroke-width="1" />
<title>runtime.save_g
累积: 20.00ms (0.1%)
自身: 0.00ms (0.0%)
</title>
<text x="0.0" y="17.0" class="node-text" text-anchor="middle">runtime.save_g</text>
</g>
<g class="node" transform="translate(1160.0,725.4)">
<circle r="5.0" fill="#ff9696" stroke="#fff" stroke-width="1" />
<title>runtime.runqput
累积: 10.00ms (0.0%)
自身: 0.00ms (0.0%)
</title>
<text x="0.0" y="17.0" class="node-text" text-anchor="middle">runtime.runqput</text>
</g>
<g class="node" transform="translate(1007.1,40.0)">
<circle r="5.0" fill="#ff9696" stroke="#fff" stroke-width="1" />
<title>runtime.(*pageAlloc).find
累积: 10.00ms (0.0%)
自身: 0.00ms (0.0%)
</title>
<text x="0.0" y="17.0" class="node-text" text-anchor="middle">runtime.(*pageAll...</text>
</g>
<g class="node" transform="translate(40.0,69.4)">
<circle r="5.0" fill="#ff9696" stroke="#fff" stroke-width="1" />
<title>runtime.(*gcControllerState).findRunnableGCWorker
累积: 10.00ms (0.0%)
自身: 0.00ms (0.0%)
</title>
<text x="0.0" y="17.0" class="node-text" text-anchor="middle">runtime.(*gcContr...</text>
</g>
<g class="node" transform="translate(40.0,124.9)">
<circle r="5.0" fill="#ff9696" stroke="#fff" stroke-width="1" />
<title>math.sin
累积: 80.00ms (0.3%)
自身: 0.00ms (0.0%)
</title>
<text x="0.0" y="17.0" class="node-text" text-anchor="middle">math.sin</text>
</g>
<g class="node" transform="translate(800.9,279.9)">
<circle r="5.1" fill="#ff9696" stroke="#fff" stroke-width="1" />
<title>runtime.(*mheap).nextSpanForSweep
累积: 90.00ms (0.4%)
自身: 0.00ms (0.0%)
</title>
<text x="0.0" y="17.1" class="node-text" text-anchor="middle">runtime.(*mheap)....</text>
</g>
<g class="node" transform="translate(40.0,153.3)">
<circle r="5.0" fill="#ff9696" stroke="#fff" stroke-width="1" />
<title>runtime.(*mheap).initSpan
累积: 10.00ms (0.0%)
自身: 0.00ms (0.0%)
</title>
<text x="0.0" y="17.0" class="node-text" text-anchor="middle">runtime.(*mheap)....</text>
</g>
<g class="node" transform="translate(56.6,40.0)">
<circle r="5.0" fill="#ff9696" stroke="#fff" stroke-width="1" />
<title>runtime.(*mLockProfile).recordUnlock
累积: 10.00ms (0.0%)
自身: 0.00ms (0.0%)
</title>
<text x="0.0" y="17.0" class="node-text" text-anchor="middle">runtime.(*mLockPr...</text>
</g>
<g class="node" transform="translate(1160.0,645.6)">
<circle r="5.0" fill="#ff9696" stroke="#fff" stroke-width="1" />
<title>runtime.globrunqget
累积: 40.00ms (0.2%)
自身: 0.00ms (0.0%)
</title>
<text x="0.0" y="17.0" class="node-text" text-anchor="middle">runtime.globrunqget</text>
</g>
<g class="node" transform="translate(548.4,243.6)">
<circle r="5.4" fill="#ff9898" stroke="#fff" stroke-width="1" />
<title>runtime.schedule
累积: 630.00ms (2.6%)
自身: 0.00ms (0.0%)
</title>
<text x="0.0" y="17.4" class="node-text" text-anchor="middle">runtime.schedule</text>
</g>
<g class="node" transform="translate(134.9,760.0)">
<circle r="5.0" fill="#ff9696" stroke="#fff" stroke-width="1" />
<title>runtime.(*timer).updateHeap
累积: 30.00ms (0.1%)
自身: 0.00ms (0.0%)
</title>
<text x="0.0" y="17.0" class="node-text" text-anchor="middle">runtime.(*timer)....</text>
</g>
<g class="node" transform="translate(615.2,432.6)">
<circle r="5.3" fill="#ff9797" stroke="#fff" stroke-width="1" />
<title>runtime.findRunnable
累积: 430.00ms (1.8%)
自身: 0.00ms (0.0%)
</title>
<text x="0.0" y="17.3" class="node-text" text-anchor="middle">runtime.findRunnable</text>
</g>
<g class="node" transform="translate(647.9,467.6)">
<circle r="8.8" fill="#ffb0b0" stroke="#fff" stroke-width="1" />
<title>math.Tan
累积: 6190.00ms (25.6%)
自身: 0.00ms (0.0%)
</title>
<text x="0.0" y="20.8" class="node-text" text-anchor="middle">math.Tan</text>
</g>
<g class="node" transform="translate(1160.0,760.0)">
<circle r="5.0" fill="#ff9696" stroke="#fff" stroke-width="1" />
<title>internal/runtime/atomic.(*Uint8).Load
累积: 10.00ms (0.0%)
自身: 0.00ms (0.0%)
</title>
<text x="0.0" y="17.0" class="node-text" text-anchor="middle">internal/runtime/...</text>
</g>
<g class="node" transform="translate(871.4,40.0)">
<circle r="5.0" fill="#ff9696" stroke="#fff" stroke-width="1" />
<title>runtime.selectgo
累积: 10.00ms (0.0%)
自身: 0.00ms (0.0%)
</title>
<text x="0.0" y="17.0" class="node-text" text-anchor="middle">runtime.selectgo</text>
</g>
<g class="node" transform="translate(958.6,40.0)">
<circle r="5.6" fill="#ff9a9a" stroke="#fff" stroke-width="1" />
<title>main.multiplyMatrices
累积: 980.00ms (4.1%)
自身: 0.00ms (0.0%)
</title>
<text x="0.0" y="17.6" class="node-text" text-anchor="middle">main.multiplyMatr...</text>
</g>
<g class="node" transform="translate(40.0,622.1)">
<circle r="5.0" fill="#ff9696" stroke="#fff" stroke-width="1" />
<title>runtime.lock2
累积: 20.00ms (0.1%)
自身: 0.00ms (0.0%)
</title>
<text x="0.0" y="17.0" class="node-text" text-anchor="middle">runtime.lock2</text>
</g>
<g class="node" transform="translate(1160.0,703.0)">
<circle r="5.0" fill="#ff9696" stroke="#fff" stroke-width="1" />
<title>runtime.gcDrainMarkWorkerFractional
累积: 10.00ms (0.0%)
自身: 0.00ms (0.0%)
</title>
<text x="0.0" y="17.0" class="node-text" text-anchor="middle">runtime.gcDrainMa...</text>
</g>
<g class="node" transform="translate(635.9,197.0)">
<circle r="5.0" fill="#ff9696" stroke="#fff" stroke-width="1" />
<title>runtime.(*mheap).alloc
累积: 20.00ms (0.1%)
自身: 0.00ms (0.0%)
</title>
<text x="0.0" y="17.0" class="node-text" text-anchor="middle">runtime.(*mheap)....</text>
</g>
<g class="node" transform="translate(1069.0,40.0)">
<circle r="5.0" fill="#ff9696" stroke="#fff" stroke-width="1" />
<title>internal/runtime/atomic.(*Uint32).Load
累积: 10.00ms (0.0%)
自身: 0.00ms (0.0%)
</title>
<text x="0.0" y="17.0" class="node-text" text-anchor="middle">internal/runtime/...</text>
</g>
<g class="node" transform="translate(805.2,40.0)">
<circle r="5.0" fill="#ff9696" stroke="#fff" stroke-width="1" />
<title>runtime.(*pageAlloc).alloc
累积: 10.00ms (0.0%)
自身: 0.00ms (0.0%)
</title>
<text x="0.0" y="17.0" class="node-text" text-anchor="middle">runtime.(*pageAll...</text>
</g>
<g class="node" transform="translate(93.9,760.0)">
<circle r="5.0" fill="#ff9696" stroke="#fff" stroke-width="1" />
<title>runtime.(*pageAlloc).free
累积: 20.00ms (0.1%)
自身: 0.00ms (0.0%)
</title>
<text x="0.0" y="17.0" class="node-text" text-anchor="middle">runtime.(*pageAll...</text>
</g>
<g class="node" transform="translate(1160.0,111.4)">
<circle r="5.1" fill="#ff9696" stroke="#fff" stroke-width="1" />
<title>runtime.asyncPreempt
累积: 110.00ms (0.5%)
自身: 0.00ms (0.0%)
</title>
<text x="0.0" y="17.1" class="node-text" text-anchor="middle">runtime.asyncPreempt</text>
</g>
<g class="node" transform="translate(1160.0,301.8)">
<circle r="5.0" fill="#ff9696" stroke="#fff" stroke-width="1" />
<title>runtime.(*timeHistogram).record
累积: 30.00ms (0.1%)
自身: 0.00ms (0.0%)
</title>
<text x="0.0" y="17.0" class="node-text" text-anchor="middle">runtime.(*timeHis...</text>
</g>
<g class="node" transform="translate(1160.0,760.0)">
<circle r="5.4" fill="#ff9898" stroke="#fff" stroke-width="1" />
<title>math.ldexp
累积: 640.00ms (2.7%)
自身: 0.00ms (0.0%)
</title>
<text x="0.0" y="17.4" class="node-text" text-anchor="middle">math.ldexp</text>
</g>
<g class="node" transform="translate(589.5,380.5)">
<circle r="5.1" fill="#ff9797" stroke="#fff" stroke-width="1" />
<title>math.Cos
累积: 230.00ms (1.0%)
自身: 0.00ms (0.0%)
</title>
<text x="0.0" y="17.1" class="node-text" text-anchor="middle">math.Cos</text>
</g>
<g class="node" transform="translate(1160.0,40.0)">
<circle r="5.0" fill="#ff9696" stroke="#fff" stroke-width="1" />
<title>runtime.(*sweepLocker).tryAcquire
累积: 10.00ms (0.0%)
自身: 0.00ms (0.0%)
</title>
<text x="0.0" y="17.0" class="node-text" text-anchor="middle">runtime.(*sweepLo...</text>
</g>
<g class="node" transform="translate(445.8,760.0)">
<circle r="8.8" fill="#ffb0b0" stroke="#fff" stroke-width="1" />
<title>math.tan
累积: 6050.00ms (25.1%)
自身: 0.00ms (0.0%)
</title>
<text x="0.0" y="20.8" class="node-text" text-anchor="middle">math.tan</text>
</g>
<g class="node" transform="translate(1160.0,40.0)">
<circle r="5.0" fill="#ff9696" stroke="#fff" stroke-width="1" />
<title>internal/runtime/atomic.(*Uintptr).Load
累积: 20.00ms (0.1%)
自身: 0.00ms (0.0%)
</title>
<text x="0.0" y="17.0" class="node-text" text-anchor="middle">internal/runtime/...</text>
</g>
<g class="node" transform="translate(1007.6,390.1)">
<circle r="5.4" fill="#ff9898" stroke="#fff" stroke-width="1" />
<title>runtime.bgsweep
累积: 680.00ms (2.8%)
自身: 0.00ms (0.0%)
</title>
<text x="0.0" y="17.4" class="node-text" text-anchor="middle">runtime.bgsweep</text>
</g>
<g class="node" transform="translate(40.0,95.5)">
<circle r="5.0" fill="#ff9696" stroke="#fff" stroke-width="1" />
<title>runtime.(*specialsIter).valid
累积: 10.00ms (0.0%)
自身: 0.00ms (0.0%)
</title>
<text x="0.0" y="17.0" class="node-text" text-anchor="middle">runtime.(*special...</text>
</g>
<g class="node" transform="translate(615.7,760.0)">
<circle r="5.1" fill="#ff9696" stroke="#fff" stroke-width="1" />
<title>runtime.(*timers).run
累积: 120.00ms (0.5%)
自身: 0.00ms (0.0%)
</title>
<text x="0.0" y="17.1" class="node-text" text-anchor="middle">runtime.(*timers)...</text>
</g>
<g class="node" transform="translate(1160.0,140.5)">
<circle r="5.0" fill="#ff9696" stroke="#fff" stroke-width="1" />
<title>runtime.profilealloc
累积: 20.00ms (0.1%)
自身: 0.00ms (0.0%)
</title>
<text x="0.0" y="17.0" class="node-text" text-anchor="middle">runtime.profilealloc</text>
</g>
<g class="node" transform="translate(40.0,40.0)">
<circle r="5.1" fill="#ff9696" stroke="#fff" stroke-width="1" />
<title>math.normalize
累积: 120.00ms (0.5%)
自身: 0.00ms (0.0%)
</title>
<text x="0.0" y="17.1" class="node-text" text-anchor="middle">math.normalize</text>
</g>
<g class="node" transform="translate(1160.0,325.6)">
<circle r="5.0" fill="#ff9696" stroke="#fff" stroke-width="1" />
<title>runtime.mallocgcSmallScanHeader
累积: 20.00ms (0.1%)
自身: 0.00ms (0.0%)
</title>
<text x="0.0" y="17.0" class="node-text" text-anchor="middle">runtime.mallocgcS...</text>
</g>
<g class="node" transform="translate(40.0,760.0)">
<circle r="5.0" fill="#ff9696" stroke="#fff" stroke-width="1" />
<title>runtime.(*pallocBits).summarize
累积: 10.00ms (0.0%)
自身: 0.00ms (0.0%)
</title>
<text x="0.0" y="17.0" class="node-text" text-anchor="middle">runtime.(*pallocB...</text>
</g>
<g class="node" transform="translate(40.0,586.9)">
<circle r="5.0" fill="#ff9696" stroke="#fff" stroke-width="1" />
<title>runtime.lockWithRank
累积: 20.00ms (0.1%)
自身: 0.00ms (0.0%)
</title>
<text x="0.0" y="17.0" class="node-text" text-anchor="middle">runtime.lockWithRank</text>
</g>
<g class="node" transform="translate(40.0,658.5)">
<circle r="5.0" fill="#ff9696" stroke="#fff" stroke-width="1" />
<title>runtime.memclrNoHeapPointers
累积: 70.00ms (0.3%)
自身: 0.00ms (0.0%)
</title>
<text x="0.0" y="17.0" class="node-text" text-anchor="middle">runtime.memclrNoH...</text>
</g>
<g class="node" transform="translate(472.1,760.0)">
<circle r="5.1" fill="#ff9696" stroke="#fff" stroke-width="1" />
<title>math.frexp
累积: 170.00ms (0.7%)
自身: 0.00ms (0.0%)
</title>
<text x="0.0" y="17.1" class="node-text" text-anchor="middle">math.frexp</text>
</g>
<g class="node" transform="translate(849.5,760.0)">
<circle r="5.0" fill="#ff9696" stroke="#fff" stroke-width="1" />
<title>runtime.(*guintptr).set
累积: 10.00ms (0.0%)
自身: 0.00ms (0.0%)
</title>
<text x="0.0" y="17.0" class="node-text" text-anchor="middle">runtime.(*guintpt...</text>
</g>
<g class="node" transform="translate(976.8,40.0)">
<circle r="5.1" fill="#ff9696" stroke="#fff" stroke-width="1" />
<title>math.cos
累积: 220.00ms (0.9%)
自身: 0.00ms (0.0%)
</title>
<text x="0.0" y="17.1" class="node-text" text-anchor="middle">math.cos</text>
</g>
<g class="node" transform="translate(1015.8,760.0)">
<circle r="6.2" fill="#ff9e9e" stroke="#fff" stroke-width="1" />
<title>math.log
累积: 1940.00ms (8.0%)
自身: 0.00ms (0.0%)
</title>
<text x="0.0" y="18.2" class="node-text" text-anchor="middle">math.log</text>
</g>
<g class="node" transform="translate(1118.0,40.0)">
<circle r="5.0" fill="#ff9696" stroke="#fff" stroke-width="1" />
<title>runtime.gogo
累积: 20.00ms (0.1%)
自身: 0.00ms (0.0%)
</title>
<text x="0.0" y="17.0" class="node-text" text-anchor="middle">runtime.gogo</text>
</g>
<g class="node" transform="translate(1160.0,505.3)">
<circle r="5.0" fill="#ff9696" stroke="#fff" stroke-width="1" />
<title>runtime.netpoll
累积: 30.00ms (0.1%)
自身: 0.00ms (0.0%)
</title>
<text x="0.0" y="17.0" class="node-text" text-anchor="middle">runtime.netpoll</text>
</g>
<g class="node" transform="translate(40.0,760.0)">
<circle r="5.0" fill="#ff9696" stroke="#fff" stroke-width="1" />
<title>runtime.(*gcBits).bytep
累积: 10.00ms (0.0%)
自身: 0.00ms (0.0%)
</title>
<text x="0.0" y="17.0" class="node-text" text-anchor="middle">runtime.(*gcBits)...</text>
</g>
<g class="node" transform="translate(582.7,493.4)">
<circle r="12.9" fill="#ffcdcd" stroke="#fff" stroke-width="1" />
<title>math.Pow
累积: 12650.00ms (52.4%)
自身: 0.00ms (0.0%)
</title>
<text x="0.0" y="24.9" class="node-text" text-anchor="middle">math.Pow</text>
</g>
<g class="node" transform="translate(60.6,760.0)">
<circle r="5.0" fill="#ff9696" stroke="#fff" stroke-width="1" />
<title>runtime.mmap
累积: 10.00ms (0.0%)
自身: 0.00ms (0.0%)
</title>
<text x="0.0" y="17.0" class="node-text" text-anchor="middle">runtime.mmap</text>
</g>
<g class="node" transform="translate(1111.1,760.0)">
<circle r="5.0" fill="#ff9696" stroke="#fff" stroke-width="1" />
<title>runtime.gcDrain
累积: 10.00ms (0.0%)
自身: 0.00ms (0.0%)
</title>
<text x="0.0" y="17.0" class="node-text" text-anchor="middle">runtime.gcDrain</text>
</g>
<g class="node" transform="translate(74.5,40.0)">
<circle r="5.2" fill="#ff9797" stroke="#fff" stroke-width="1" />
<title>math.Float64frombits
累积: 270.00ms (1.1%)
自身: 0.00ms (0.0%)
</title>
<text x="0.0" y="17.2" class="node-text" text-anchor="middle">math.Float64frombits</text>
</g>
<g class="node" transform="translate(1160.0,760.0)">
<circle r="5.0" fill="#ff9696" stroke="#fff" stroke-width="1" />
<title>runtime.startTheWorldWithSema
累积: 30.00ms (0.1%)
自身: 0.00ms (0.0%)
</title>
<text x="0.0" y="17.0" class="node-text" text-anchor="middle">runtime.startTheW...</text>
</g>
<g class="node" transform="translate(75.4,760.0)">
<circle r="5.0" fill="#ff9696" stroke="#fff" stroke-width="1" />
<title>runtime.(*scavengerState).park
累积: 20.00ms (0.1%)
自身: 0.00ms (0.0%)
</title>
<text x="0.0" y="17.0" class="node-text" text-anchor="middle">runtime.(*scaveng...</text>
</g>
<g class="node" transform="translate(1160.0,414.4)">
<circle r="5.0" fill="#ff9696" stroke="#fff" stroke-width="1" />
<title>runtime.kevent
累积: 30.00ms (0.1%)
自身: 0.00ms (0.0%)
</title>
<text x="0.0" y="17.0" class="node-text" text-anchor="middle">runtime.kevent</text>
</g>
<g class="node" transform="translate(1042.8,760.0)">
<circle r="5.1" fill="#ff9696" stroke="#fff" stroke-width="1" />
<title>runtime.goschedIfBusy
累积: 90.00ms (0.4%)
自身: 0.00ms (0.0%)
</title>
<text x="0.0" y="17.1" class="node-text" text-anchor="middle">runtime.goschedIf...</text>
</g>
<g class="node" transform="translate(1160.0,602.8)">
<circle r="5.0" fill="#ff9696" stroke="#fff" stroke-width="1" />
<title>runtime.acquirem
累积: 10.00ms (0.0%)
自身: 0.00ms (0.0%)
</title>
<text x="0.0" y="17.0" class="node-text" text-anchor="middle">runtime.acquirem</text>
</g>
<g class="node" transform="translate(1097.0,40.0)">
<circle r="5.2" fill="#ff9797" stroke="#fff" stroke-width="1" />
<title>math.IsNaN
累积: 350.00ms (1.4%)
自身: 0.00ms (0.0%)
</title>
<text x="0.0" y="17.2" class="node-text" text-anchor="middle">math.IsNaN</text>
</g>
<g class="node" transform="translate(1131.8,760.0)">
<circle r="5.0" fill="#ff9696" stroke="#fff" stroke-width="1" />
<title>runtime.(*timer).unlock
累积: 20.00ms (0.1%)
自身: 0.00ms (0.0%)
</title>
<text x="0.0" y="17.0" class="node-text" text-anchor="middle">runtime.(*timer)....</text>
</g>
<g class="node" transform="translate(1160.0,760.0)">
<circle r="5.0" fill="#ff9696" stroke="#fff" stroke-width="1" />
<title>runtime.(*spanSet).pop
累积: 40.00ms (0.2%)
自身: 0.00ms (0.0%)
</title>
<text x="0.0" y="17.0" class="node-text" text-anchor="middle">runtime.(*spanSet...</text>
</g>
<g class="node" transform="translate(837.0,512.4)">
<circle r="5.4" fill="#ff9999" stroke="#fff" stroke-width="1" />
<title>runtime.goschedImpl
累积: 690.00ms (2.9%)
自身: 0.00ms (0.0%)
</title>
<text x="0.0" y="17.4" class="node-text" text-anchor="middle">runtime.goschedImpl</text>
</g>
<g class="node" transform="translate(1085.8,760.0)">
<circle r="6.6" fill="#ffa1a1" stroke="#fff" stroke-width="1" />
<title>main.main
累积: 2560.00ms (10.6%)
自身: 0.00ms (0.0%)
</title>
<text x="0.0" y="18.6" class="node-text" text-anchor="middle">main.main</text>
</g>
<g class="node" transform="translate(804.0,760.0)">
<circle r="5.0" fill="#ff9696" stroke="#fff" stroke-width="1" />
<title>runtime.wakep
累积: 50.00ms (0.2%)
自身: 0.00ms (0.0%)
</title>
<text x="0.0" y="17.0" class="node-text" text-anchor="middle">runtime.wakep</text>
</g>
<g class="node" transform="translate(827.5,40.0)">
<circle r="5.0" fill="#ff9696" stroke="#fff" stroke-width="1" />
<title>main.main.func3
累积: 20.00ms (0.1%)
自身: 0.00ms (0.0%)
</title>
<text x="0.0" y="17.0" class="node-text" text-anchor="middle">main.main.func3</text>
</g>
<g class="node" transform="translate(791.5,394.7)">
<circle r="20.0" fill="#ffffff" stroke="#fff" stroke-width="1" />
<title>runtime.main
累积: 24140.00ms (100.0%)
自身: 0.00ms (0.0%)
</title>
<text x="0.0" y="32.0" class="node-text" text-anchor="middle">runtime.main</text>
</g>
<g class="node" transform="translate(40.0,40.0)">
<circle r="5.0" fill="#ff9696" stroke="#fff" stroke-width="1" />
<title>runtime.(*mspan).init
累积: 10.00ms (0.0%)
自身: 0.00ms (0.0%)
</title>
<text x="0.0" y="17.0" class="node-text" text-anchor="middle">runtime.(*mspan)....</text>
</g>
<g class="node" transform="translate(462.0,348.6)">
<circle r="5.4" fill="#ff9898" stroke="#fff" stroke-width="1" />
<title>runtime.morestack
累积: 630.00ms (2.6%)
自身: 0.00ms (0.0%)
</title>
<text x="0.0" y="17.4" class="node-text" text-anchor="middle">runtime.morestack</text>
</g>
<g class="node" transform="translate(1160.0,370.1)">
<circle r="5.0" fill="#ff9696" stroke="#fff" stroke-width="1" />
<title>runtime.(*mspan).countAlloc
累积: 10.00ms (0.0%)
自身: 0.00ms (0.0%)
</title>
<text x="0.0" y="17.0" class="node-text" text-anchor="middle">runtime.(*mspan)....</text>
</g>
<g class="node" transform="translate(1160.0,40.0)">
<circle r="5.0" fill="#ff9696" stroke="#fff" stroke-width="1" />
<title>internal/runtime/atomic.(*Uint32).CompareAndSwap
累积: 10.00ms (0.0%)
自身: 0.00ms (0.0%)
</title>
<text x="0.0" y="17.0" class="node-text" text-anchor="middle">internal/runtime/...</text>
</g>
<g class="node" transform="translate(542.9,494.8)">
<circle r="5.1" fill="#ff9696" stroke="#fff" stroke-width="1" />
<title>runtime.(*mheap).alloc.func1
累积: 120.00ms (0.5%)
自身: 0.00ms (0.0%)
</title>
<text x="0.0" y="17.1" class="node-text" text-anchor="middle">runtime.(*mheap)....</text>
</g>
<g class="node" transform="translate(1039.0,40.0)">
<circle r="5.0" fill="#ff9696" stroke="#fff" stroke-width="1" />
<title>runtime.(*sweepClass).update
累积: 10.00ms (0.0%)
自身: 0.00ms (0.0%)
</title>
<text x="0.0" y="17.0" class="node-text" text-anchor="middle">runtime.(*sweepCl...</text>
</g>
<g class="node" transform="translate(159.6,760.0)">
<circle r="11.5" fill="#ffc3c3" stroke="#fff" stroke-width="1" />
<title>math.pow
累积: 10470.00ms (43.4%)
自身: 0.00ms (0.0%)
</title>
<text x="0.0" y="23.5" class="node-text" text-anchor="middle">math.pow</text>
</g>
<g class="node" transform="translate(233.8,760.0)">
<circle r="5.6" fill="#ff9a9a" stroke="#fff" stroke-width="1" />
<title>math.IsInf
累积: 1000.00ms (4.1%)
自身: 0.00ms (0.0%)
</title>
<text x="0.0" y="17.6" class="node-text" text-anchor="middle">math.IsInf</text>
</g>
<g class="node" transform="translate(273.6,40.0)">
<circle r="5.0" fill="#ff9696" stroke="#fff" stroke-width="1" />
<title>runtime.unlockWithRank
累积: 10.00ms (0.0%)
自身: 0.00ms (0.0%)
</title>
<text x="0.0" y="17.0" class="node-text" text-anchor="middle">runtime.unlockWit...</text>
</g>
<g class="node" transform="translate(1160.0,282.9)">
<circle r="5.0" fill="#ff9696" stroke="#fff" stroke-width="1" />
<title>runtime.nanotime1
累积: 50.00ms (0.2%)
自身: 0.00ms (0.0%)
</title>
<text x="0.0" y="17.0" class="node-text" text-anchor="middle">runtime.nanotime1</text>
</g>
<g class="node" transform="translate(1160.0,186.8)">
<circle r="5.0" fill="#ff9696" stroke="#fff" stroke-width="1" />
<title>runtime.nanotime
累积: 60.00ms (0.2%)
自身: 0.00ms (0.0%)
</title>
<text x="0.0" y="17.0" class="node-text" text-anchor="middle">runtime.nanotime</text>
</g>
<g class="node" transform="translate(112.6,760.0)">
<circle r="5.1" fill="#ff9696" stroke="#fff" stroke-width="1" />
<title>runtime.(*timers).adjust
累积: 120.00ms (0.5%)
自身: 0.00ms (0.0%)
</title>
<text x="0.0" y="17.1" class="node-text" text-anchor="middle">runtime.(*timers)...</text>
</g>
<g class="node" transform="translate(935.6,178.7)">
<circle r="5.1" fill="#ff9696" stroke="#fff" stroke-width="1" />
<title>runtime.makeslice
累积: 120.00ms (0.5%)
自身: 0.00ms (0.0%)
</title>
<text x="0.0" y="17.1" class="node-text" text-anchor="middle">runtime.makeslice</text>
</g>
<g class="node" transform="translate(40.0,552.6)">
<circle r="5.0" fill="#ff9696" stroke="#fff" stroke-width="1" />
<title>runtime.(*gcBitsArena).tryAlloc
累积: 20.00ms (0.1%)
自身: 0.00ms (0.0%)
</title>
<text x="0.0" y="17.0" class="node-text" text-anchor="middle">runtime.(*gcBitsA...</text>
</g>
<g class="node" transform="translate(625.7,40.0)">
<circle r="5.0" fill="#ff9696" stroke="#fff" stroke-width="1" />
<title>runtime.(*mcentral).grow
累积: 20.00ms (0.1%)
自身: 0.00ms (0.0%)
</title>
<text x="0.0" y="17.0" class="node-text" text-anchor="middle">runtime.(*mcentra...</text>
</g>
<g class="node" transform="translate(500.0,397.5)">
<circle r="5.6" fill="#ff9a9a" stroke="#fff" stroke-width="1" />
<title>math.Ldexp
累积: 990.00ms (4.1%)
自身: 0.00ms (0.0%)
</title>
<text x="0.0" y="17.6" class="node-text" text-anchor="middle">math.Ldexp</text>
</g>
<g class="node" transform="translate(1160.0,65.4)">
<circle r="5.0" fill="#ff9696" stroke="#fff" stroke-width="1" />
<title>runtime.(*activeSweep).begin
累积: 10.00ms (0.0%)
自身: 0.00ms (0.0%)
</title>
<text x="0.0" y="17.0" class="node-text" text-anchor="middle">runtime.(*activeS...</text>
</g>
<g class="node" transform="translate(921.7,760.0)">
<circle r="5.0" fill="#ff9696" stroke="#fff" stroke-width="1" />
<title>math.archModf
累积: 40.00ms (0.2%)
自身: 0.00ms (0.0%)
</title>
<text x="0.0" y="17.0" class="node-text" text-anchor="middle">math.archModf</text>
</g>
<g class="node" transform="translate(40.0,760.0)">
<circle r="5.0" fill="#ff9696" stroke="#fff" stroke-width="1" />
<title>runtime.sysMapOS
累积: 10.00ms (0.0%)
自身: 0.00ms (0.0%)
</title>
<text x="0.0" y="17.0" class="node-text" text-anchor="middle">runtime.sysMapOS</text>
</g>
<g class="node" transform="translate(181.9,760.0)">
<circle r="5.0" fill="#ff9696" stroke="#fff" stroke-width="1" />
<title>runtime.(*pageAlloc).update
累积: 10.00ms (0.0%)
自身: 0.00ms (0.0%)
</title>
<text x="0.0" y="17.0" class="node-text" text-anchor="middle">runtime.(*pageAll...</text>
</g>
<g class="node" transform="translate(40.0,760.0)">
<circle r="5.0" fill="#ff9696" stroke="#fff" stroke-width="1" />
<title>math.trigReduce
累积: 20.00ms (0.1%)
自身: 0.00ms (0.0%)
</title>
<text x="0.0" y="17.0" class="node-text" text-anchor="middle">math.trigReduce</text>
</g>
<g class="node" transform="translate(769.0,760.0)">
<circle r="5.0" fill="#ff9696" stroke="#fff" stroke-width="1" />
<title>runtime.pidleget
累积: 20.00ms (0.1%)
自身: 0.00ms (0.0%)
</title>
<text x="0.0" y="17.0" class="node-text" text-anchor="middle">runtime.pidleget</text>
</g>
<g class="node" transform="translate(619.2,499.3)">
<circle r="5.0" fill="#ff9696" stroke="#fff" stroke-width="1" />
<title>runtime.bgscavenge
累积: 40.00ms (0.2%)
自身: 0.00ms (0.0%)
</title>
<text x="0.0" y="17.0" class="node-text" text-anchor="middle">runtime.bgscavenge</text>
</g>
<g class="node" transform="translate(125.0,40.0)">
<circle r="5.0" fill="#ff9696" stroke="#fff" stroke-width="1" />
<title>runtime.(*consistentHeapStats).release
累积: 10.00ms (0.0%)
自身: 0.00ms (0.0%)
</title>
<text x="0.0" y="17.0" class="node-text" text-anchor="middle">runtime.(*consist...</text>
</g>
<g class="node" transform="translate(40.0,255.1)">
<circle r="5.1" fill="#ff9696" stroke="#fff" stroke-width="1" />
<title>runtime.(*sweepLocked).sweep
累积: 160.00ms (0.7%)
自身: 0.00ms (0.0%)
</title>
<text x="0.0" y="17.1" class="node-text" text-anchor="middle">runtime.(*sweepLo...</text>
</g>
<g class="node" transform="translate(1136.9,40.0)">
<circle r="5.0" fill="#ff9696" stroke="#fff" stroke-width="1" />
<title>internal/runtime/atomic.(*Uintptr).Add
累积: 10.00ms (0.0%)
自身: 0.00ms (0.0%)
</title>
<text x="0.0" y="17.0" class="node-text" text-anchor="middle">internal/runtime/...</text>
</g>
<g class="node" transform="translate(642.0,760.0)">
<circle r="5.1" fill="#ff9696" stroke="#fff" stroke-width="1" />
<title>runtime.madvise
累积: 90.00ms (0.4%)
自身: 0.00ms (0.0%)
</title>
<text x="0.0" y="17.1" class="node-text" text-anchor="middle">runtime.madvise</text>
</g>
<g class="node" transform="translate(213.0,40.0)">
<circle r="5.0" fill="#ff9696" stroke="#fff" stroke-width="1" />
<title>runtime.headTailIndex.head
累积: 10.00ms (0.0%)
自身: 0.00ms (0.0%)
</title>
<text x="0.0" y="17.0" class="node-text" text-anchor="middle">runtime.headTailI...</text>
</g>
<g class="node" transform="translate(886.0,665.4)">
<circle r="5.4" fill="#ff9999" stroke="#fff" stroke-width="1" />
<title>runtime.gopreempt_m
累积: 700.00ms (2.9%)
自身: 0.00ms (0.0%)
</title>
<text x="0.0" y="17.4" class="node-text" text-anchor="middle">runtime.gopreempt_m</text>
</g>
<g class="node" transform="translate(40.0,398.0)">
<circle r="5.0" fill="#ff9696" stroke="#fff" stroke-width="1" />
<title>runtime.(*mheap).grow
累积: 10.00ms (0.0%)
自身: 0.00ms (0.0%)
</title>
<text x="0.0" y="17.0" class="node-text" text-anchor="middle">runtime.(*mheap)....</text>
</g>
<g class="node" transform="translate(575.2,645.6)">
<circle r="6.5" fill="#ffa0a0" stroke="#fff" stroke-width="1" />
<title>math.Log
累积: 2460.00ms (10.2%)
自身: 0.00ms (0.0%)
</title>
<text x="0.0" y="18.5" class="node-text" text-anchor="middle">math.Log</text>
</g>
<g class="node" transform="translate(1160.0,254.0)">
<circle r="5.1" fill="#ff9696" stroke="#fff" stroke-width="1" />
<title>runtime.execute
累积: 120.00ms (0.5%)
自身: 0.00ms (0.0%)
</title>
<text x="0.0" y="17.1" class="node-text" text-anchor="middle">runtime.execute</text>
</g>
<g class="node" transform="translate(943.9,760.0)">
<circle r="5.0" fill="#ff9696" stroke="#fff" stroke-width="1" />
<title>runtime.pidlegetSpinning
累积: 20.00ms (0.1%)
自身: 0.00ms (0.0%)
</title>
<text x="0.0" y="17.0" class="node-text" text-anchor="middle">runtime.pidlegetS...</text>
</g>
<g class="node" transform="translate(941.7,355.4)">
<circle r="5.1" fill="#ff9696" stroke="#fff" stroke-width="1" />
<title>runtime.mallocgc
累积: 120.00ms (0.5%)
自身: 0.00ms (0.0%)
</title>
<text x="0.0" y="17.1" class="node-text" text-anchor="middle">runtime.mallocgc</text>
</g>
<g class="node" transform="translate(548.9,315.6)">
<circle r="5.3" fill="#ff9797" stroke="#fff" stroke-width="1" />
<title>runtime.sweepone
累积: 410.00ms (1.7%)
自身: 0.00ms (0.0%)
</title>
<text x="0.0" y="17.3" class="node-text" text-anchor="middle">runtime.sweepone</text>
</g>
<g class="node" transform="translate(1160.0,40.0)">
<circle r="5.0" fill="#ff9696" stroke="#fff" stroke-width="1" />
<title>internal/runtime/atomic.(*UnsafePointer).Load
累积: 20.00ms (0.1%)
自身: 0.00ms (0.0%)
</title>
<text x="0.0" y="17.0" class="node-text" text-anchor="middle">internal/runtime/...</text>
</g>
<g class="node" transform="translate(335.8,153.6)">
<circle r="5.0" fill="#ff9696" stroke="#fff" stroke-width="1" />
<title>runtime.(*mheap).allocSpan
累积: 30.00ms (0.1%)
自身: 0.00ms (0.0%)
</title>
<text x="0.0" y="17.0" class="node-text" text-anchor="middle">runtime.(*mheap)....</text>
</g>
<g class="node" transform="translate(698.7,418.0)">
<circle r="5.1" fill="#ff9797" stroke="#fff" stroke-width="1" />
<title>runtime.systemstack
累积: 240.00ms (1.0%)
自身: 0.00ms (0.0%)
</title>
<text x="0.0" y="17.1" class="node-text" text-anchor="middle">runtime.systemstack</text>
</g>
<g class="node" transform="translate(1124.1,443.6)">
<circle r="5.0" fill="#ff9696" stroke="#fff" stroke-width="1" />
<title>runtime.(*mcache).nextFree
累积: 30.00ms (0.1%)
自身: 0.00ms (0.0%)
</title>
<text x="0.0" y="17.0" class="node-text" text-anchor="middle">runtime.(*mcache)...</text>
</g>
<g class="node" transform="translate(40.0,207.0)">
<circle r="5.0" fill="#ff9696" stroke="#fff" stroke-width="1" />
<title>runtime.runqget
累积: 20.00ms (0.1%)
自身: 0.00ms (0.0%)
</title>
<text x="0.0" y="17.0" class="node-text" text-anchor="middle">runtime.runqget</text>
</g>
<g class="node" transform="translate(40.0,525.4)">
<circle r="5.0" fill="#ff9696" stroke="#fff" stroke-width="1" />
<title>runtime.(*mcentral).fullUnswept
累积: 10.00ms (0.0%)
自身: 0.00ms (0.0%)
</title>
<text x="0.0" y="17.0" class="node-text" text-anchor="middle">runtime.(*mcentra...</text>
</g>
<g class="node" transform="translate(40.0,760.0)">
<circle r="5.0" fill="#ff9696" stroke="#fff" stroke-width="1" />
<title>math.Float64bits
累积: 20.00ms (0.1%)
自身: 0.00ms (0.0%)
</title>
<text x="0.0" y="17.0" class="node-text" text-anchor="middle">math.Float64bits</text>
</g>
<g class="node" transform="translate(864.4,760.0)">
<circle r="5.1" fill="#ff9696" stroke="#fff" stroke-width="1" />
<title>runtime.sysUsedOS
累积: 90.00ms (0.4%)
自身: 0.00ms (0.0%)
</title>
<text x="0.0" y="17.1" class="node-text" text-anchor="middle">runtime.sysUsedOS</text>
</g>
<g class="node" transform="translate(352.9,760.0)">
<circle r="5.0" fill="#ff9696" stroke="#fff" stroke-width="1" />
<title>runtime.(*gQueue).pop
累积: 10.00ms (0.0%)
自身: 0.00ms (0.0%)
</title>
<text x="0.0" y="17.0" class="node-text" text-anchor="middle">runtime.(*gQueue)...</text>
</g>
<g class="node" transform="translate(1160.0,546.6)">
<circle r="5.0" fill="#ff9696" stroke="#fff" stroke-width="1" />
<title>runtime.casgstatus
累积: 60.00ms (0.2%)
自身: 0.00ms (0.0%)
</title>
<text x="0.0" y="17.0" class="node-text" text-anchor="middle">runtime.casgstatus</text>
</g>
<g class="node" transform="translate(1160.0,464.3)">
<circle r="5.0" fill="#ff9696" stroke="#fff" stroke-width="1" />
<title>runtime.libcCall
累积: 10.00ms (0.0%)
自身: 0.00ms (0.0%)
</title>
<text x="0.0" y="17.0" class="node-text" text-anchor="middle">runtime.libcCall</text>
</g>
<g class="node" transform="translate(699.1,209.2)">
<circle r="5.0" fill="#ff9696" stroke="#fff" stroke-width="1" />
<title>runtime.gcBgMarkWorker
累积: 10.00ms (0.0%)
自身: 0.00ms (0.0%)
</title>
<text x="0.0" y="17.0" class="node-text" text-anchor="middle">runtime.gcBgMarkW...</text>
</g>
<g class="node" transform="translate(329.0,760.0)">
<circle r="5.2" fill="#ff9797" stroke="#fff" stroke-width="1" />
<title>runtime.(*timers).check
累积: 270.00ms (1.1%)
自身: 0.00ms (0.0%)
</title>
<text x="0.0" y="17.2" class="node-text" text-anchor="middle">runtime.(*timers)...</text>
</g>
<g class="node" transform="translate(1030.2,282.0)">
<circle r="5.0" fill="#ff9696" stroke="#fff" stroke-width="1" />
<title>runtime.(*mcache).refill
累积: 30.00ms (0.1%)
自身: 0.00ms (0.0%)
</title>
<text x="0.0" y="17.0" class="node-text" text-anchor="middle">runtime.(*mcache)...</text>
</g>
<g class="node" transform="translate(694.9,441.1)">
<circle r="5.1" fill="#ff9696" stroke="#fff" stroke-width="1" />
<title>runtime.mallocgcSmallNoscan
累积: 100.00ms (0.4%)
自身: 0.00ms (0.0%)
</title>
<text x="0.0" y="17.1" class="node-text" text-anchor="middle">runtime.mallocgcS...</text>
</g>
<g class="node" transform="translate(474.3,388.1)">
<circle r="5.0" fill="#ff9696" stroke="#fff" stroke-width="1" />
<title>runtime.(*sweepLocked).sweep.(*mheap).freeSpan.func2
累积: 70.00ms (0.3%)
自身: 0.00ms (0.0%)
</title>
<text x="0.0" y="17.0" class="node-text" text-anchor="middle">runtime.(*sweepLo...</text>
</g>
</svg>
