<?xml version="1.0" encoding="UTF-8" standalone="no"?>
<svg width="3000" height="1800" xmlns="http://www.w3.org/2000/svg">
<style>
.node { fill: #ffffff; stroke: #d32f2f; stroke-width: 2px; }
.node.hot { fill: #ffebee; stroke: #d32f2f; stroke-width: 3px; }
.node-text { font-family: Arial; font-size: 14px; text-anchor: middle; }
.node-package { font-family: Arial; font-size: 12px; fill: #666; text-anchor: middle; }
.node-time { font-family: Arial; font-size: 12px; fill: #d32f2f; text-anchor: middle; }
.edge { stroke: #d32f2f; stroke-width: 2px; fill: none; marker-end: url(#arrowhead); }
.edge-label { font-family: Arial; font-size: 12px; fill: #d32f2f; text-anchor: middle; }
</style>
<defs>
  <marker id="arrowhead" viewBox="0 -5 10 10" refX="2" refY="0" 
          markerWidth="6" markerHeight="6" orient="auto">
    <path d="M0,-5L10,0L0,5" fill="#d32f2f"/>
  </marker>
</defs>
<text x="40" y="30" font-family="Arial" font-size="18" font-weight="bold">函数调用图</text>
<text x="40" y="50" font-family="Arial" font-size="12">总时间: 933.23秒</text>
<path class="edge" d="M1540.0,250.0 L1016.7,320.0"/>
<text class="edge-label" x="1278.3" y="275.0">79.95s (8.57%)</text>
<path class="edge" d="M2325.0,810.0 L166.3,880.0"/>
<text class="edge-label" x="1245.6" y="835.0">1.45s (0.16%)</text>
<path class="edge" d="M362.5,810.0 L362.5,880.0"/>
<text class="edge-label" x="362.5" y="835.0">2.93s (0.31%)</text>
<path class="edge" d="M1540.0,110.0 L493.3,600.0"/>
<text class="edge-label" x="1016.7" y="345.0">288.00s (30.86%)</text>
<path class="edge" d="M1016.7,670.0 L362.5,740.0"/>
<text class="edge-label" x="689.6" y="695.0">5.82s (0.62%)</text>
<path class="edge" d="M1540.0,810.0 L558.8,880.0"/>
<text class="edge-label" x="1049.4" y="835.0">1.26s (0.14%)</text>
<path class="edge" d="M1540.0,110.0 L1016.7,600.0"/>
<text class="edge-label" x="1278.3" y="345.0">479.52s (51.38%)</text>
<path class="edge" d="M1540.0,110.0 L755.0,880.0"/>
<text class="edge-label" x="1147.5" y="485.0">34.16s (3.66%)</text>
<path class="edge" d="M1147.5,810.0 L951.3,880.0"/>
<text class="edge-label" x="1049.4" y="835.0">2.43s (0.26%)</text>
<path class="edge" d="M1540.0,810.0 L1147.5,880.0"/>
<text class="edge-label" x="1343.8" y="835.0">17.32s (1.86%)</text>
<path class="edge" d="M755.0,810.0 L1147.5,880.0"/>
<text class="edge-label" x="951.3" y="835.0">17.32s (1.86%)</text>
<path class="edge" d="M2717.5,810.0 L1147.5,880.0"/>
<text class="edge-label" x="1932.5" y="835.0">17.32s (1.86%)</text>
<path class="edge" d="M1932.5,810.0 L1343.8,880.0"/>
<text class="edge-label" x="1638.1" y="835.0">1.10s (0.12%)</text>
<path class="edge" d="M493.3,670.0 L1540.0,880.0"/>
<text class="edge-label" x="1016.7" y="765.0">16.65s (1.78%)</text>
<path class="edge" d="M755.0,810.0 L1540.0,880.0"/>
<text class="edge-label" x="1147.5" y="835.0">16.65s (1.78%)</text>
<path class="edge" d="M1016.7,670.0 L1540.0,880.0"/>
<text class="edge-label" x="1278.3" y="765.0">16.65s (1.78%)</text>
<path class="edge" d="M2717.5,810.0 L1540.0,880.0"/>
<text class="edge-label" x="2128.8" y="835.0">16.65s (1.78%)</text>
<path class="edge" d="M1540.0,250.0 L755.0,740.0"/>
<text class="edge-label" x="1147.5" y="485.0">50.45s (5.41%)</text>
<path class="edge" d="M1016.7,670.0 L755.0,740.0"/>
<text class="edge-label" x="885.8" y="695.0">50.45s (5.41%)</text>
<path class="edge" d="M1016.7,530.0 L1540.0,600.0"/>
<text class="edge-label" x="1278.3" y="555.0">2.07s (0.22%)</text>
<path class="edge" d="M2717.5,810.0 L1736.3,880.0"/>
<text class="edge-label" x="2226.9" y="835.0">11.79s (1.26%)</text>
<path class="edge" d="M1540.0,110.0 L1932.5,880.0"/>
<text class="edge-label" x="1736.3" y="485.0">21.45s (2.30%)</text>
<path class="edge" d="M1016.7,390.0 L1016.7,460.0"/>
<text class="edge-label" x="1016.7" y="415.0">2.05s (0.22%)</text>
<path class="edge" d="M2063.3,390.0 L1016.7,460.0"/>
<text class="edge-label" x="1540.0" y="415.0">2.05s (0.22%)</text>
<path class="edge" d="M1540.0,110.0 L1540.0,180.0"/>
<text class="edge-label" x="1540.0" y="135.0">110.30s (11.82%)</text>
<path class="edge" d="M2063.3,670.0 L1147.5,740.0"/>
<text class="edge-label" x="1605.4" y="695.0">5.08s (0.54%)</text>
<path class="edge" d="M493.3,670.0 L1540.0,740.0"/>
<text class="edge-label" x="1016.7" y="695.0">279.99s (30.00%)</text>
<path class="edge" d="M2063.3,530.0 L2586.7,600.0"/>
<text class="edge-label" x="2325.0" y="555.0">1.15s (0.12%)</text>
<path class="edge" d="M1016.7,670.0 L2128.8,880.0"/>
<text class="edge-label" x="1572.7" y="765.0">406.38s (43.55%)</text>
<path class="edge" d="M1540.0,250.0 L2325.0,880.0"/>
<text class="edge-label" x="1932.5" y="555.0">39.95s (4.28%)</text>
<path class="edge" d="M493.3,670.0 L2325.0,880.0"/>
<text class="edge-label" x="1409.2" y="765.0">39.95s (4.28%)</text>
<path class="edge" d="M755.0,810.0 L2325.0,880.0"/>
<text class="edge-label" x="1540.0" y="835.0">39.95s (4.28%)</text>
<path class="edge" d="M1016.7,670.0 L2325.0,880.0"/>
<text class="edge-label" x="1670.8" y="765.0">39.95s (4.28%)</text>
<path class="edge" d="M2717.5,810.0 L2325.0,880.0"/>
<text class="edge-label" x="2521.3" y="835.0">39.95s (4.28%)</text>
<path class="edge" d="M755.0,810.0 L2521.3,880.0"/>
<text class="edge-label" x="1638.1" y="835.0">10.74s (1.15%)</text>
<path class="edge" d="M2717.5,810.0 L2521.3,880.0"/>
<text class="edge-label" x="2619.4" y="835.0">10.74s (1.15%)</text>
<path class="edge" d="M1540.0,810.0 L2717.5,880.0"/>
<text class="edge-label" x="2128.8" y="835.0">1.86s (0.20%)</text>
<path class="edge" d="M2717.5,810.0 L2717.5,880.0"/>
<text class="edge-label" x="2717.5" y="835.0">1.86s (0.20%)</text>
<path class="edge" d="M2586.7,670.0 L1932.5,740.0"/>
<text class="edge-label" x="2259.6" y="695.0">1.10s (0.12%)</text>
<path class="edge" d="M1540.0,670.0 L2325.0,740.0"/>
<text class="edge-label" x="1932.5" y="695.0">1.93s (0.21%)</text>
<path class="edge" d="M755.0,810.0 L2913.8,880.0"/>
<text class="edge-label" x="1834.4" y="835.0">6.89s (0.74%)</text>
<path class="edge" d="M1016.7,670.0 L2717.5,740.0"/>
<text class="edge-label" x="1867.1" y="695.0">27.22s (2.92%)</text>
<g transform="translate(946.7,320.0)">
<rect class="node" width="140.0" height="70.0" rx="4"/>
<text class="node-package" x="70.0" y="15.0">math</text>
<text class="node-text" x="70.0" y="30.0">log</text>
<text class="node-time" x="70.0" y="45.0">flat: 79.89s (8.56%)</text>
<text class="node-time" x="70.0" y="60.0">cum: 79.95s (8.57%)</text>
</g>
<g transform="translate(96.3,880.0)">
<rect class="node" width="140.0" height="70.0" rx="4"/>
<text class="node-package" x="70.0" y="15.0">runtime</text>
<text class="node-text" x="70.0" y="30.0">findRunnable</text>
<text class="node-time" x="70.0" y="45.0">flat: 0.24s (0.03%)</text>
<text class="node-time" x="70.0" y="60.0">cum: 1.45s (0.16%)</text>
</g>
<g transform="translate(292.5,880.0)">
<rect class="node" width="140.0" height="70.0" rx="4"/>
<text class="node-package" x="70.0" y="15.0">math</text>
<text class="node-text" x="70.0" y="30.0">archModf</text>
<text class="node-time" x="70.0" y="45.0">flat: 2.93s (0.31%)</text>
<text class="node-time" x="70.0" y="60.0">cum: 2.93s (0.31%)</text>
</g>
<g transform="translate(423.3,600.0)">
<rect class="node hot" width="140.0" height="70.0" rx="4"/>
<text class="node-package" x="70.0" y="15.0">math</text>
<text class="node-text" x="70.0" y="30.0">Tan</text>
<text class="node-time" x="70.0" y="45.0">flat: 0.00s (0.00%)</text>
<text class="node-time" x="70.0" y="60.0">cum: 288.00s (30.86%)</text>
</g>
<g transform="translate(292.5,740.0)">
<rect class="node" width="140.0" height="70.0" rx="4"/>
<text class="node-package" x="70.0" y="15.0">math</text>
<text class="node-text" x="70.0" y="30.0">Modf</text>
<text class="node-time" x="70.0" y="45.0">flat: 2.89s (0.31%)</text>
<text class="node-time" x="70.0" y="60.0">cum: 5.82s (0.62%)</text>
</g>
<g transform="translate(488.8,880.0)">
<rect class="node" width="140.0" height="70.0" rx="4"/>
<text class="node-package" x="70.0" y="15.0">math</text>
<text class="node-text" x="70.0" y="30.0">trigReduce</text>
<text class="node-time" x="70.0" y="45.0">flat: 1.26s (0.14%)</text>
<text class="node-time" x="70.0" y="60.0">cum: 1.26s (0.14%)</text>
</g>
<g transform="translate(946.7,600.0)">
<rect class="node hot" width="140.0" height="70.0" rx="4"/>
<text class="node-package" x="70.0" y="15.0">math</text>
<text class="node-text" x="70.0" y="30.0">Pow</text>
<text class="node-time" x="70.0" y="45.0">flat: 0.37s (0.04%)</text>
<text class="node-time" x="70.0" y="60.0">cum: 479.52s (51.38%)</text>
</g>
<g transform="translate(685.0,880.0)">
<rect class="node" width="140.0" height="70.0" rx="4"/>
<text class="node-package" x="70.0" y="15.0">main</text>
<text class="node-text" x="70.0" y="30.0">multiplyMatrices</text>
<text class="node-time" x="70.0" y="45.0">flat: 33.23s (3.56%)</text>
<text class="node-time" x="70.0" y="60.0">cum: 34.16s (3.66%)</text>
</g>
<g transform="translate(881.3,880.0)">
<rect class="node" width="140.0" height="70.0" rx="4"/>
<text class="node-package" x="70.0" y="15.0">runtime</text>
<text class="node-text" x="70.0" y="30.0">(*sweepLocked)</text>
<text class="node-time" x="70.0" y="45.0">flat: 1.69s (0.18%)</text>
<text class="node-time" x="70.0" y="60.0">cum: 2.43s (0.26%)</text>
</g>
<g transform="translate(1077.5,880.0)">
<rect class="node" width="140.0" height="70.0" rx="4"/>
<text class="node-package" x="70.0" y="15.0">math</text>
<text class="node-text" x="70.0" y="30.0">Float64frombits</text>
<text class="node-time" x="70.0" y="45.0">flat: 17.32s (1.86%)</text>
<text class="node-time" x="70.0" y="60.0">cum: 17.32s (1.86%)</text>
</g>
<g transform="translate(1273.8,880.0)">
<rect class="node" width="140.0" height="70.0" rx="4"/>
<text class="node-package" x="70.0" y="15.0">runtime</text>
<text class="node-text" x="70.0" y="30.0">madvise</text>
<text class="node-time" x="70.0" y="45.0">flat: 1.10s (0.12%)</text>
<text class="node-time" x="70.0" y="60.0">cum: 1.10s (0.12%)</text>
</g>
<g transform="translate(1470.0,880.0)">
<rect class="node" width="140.0" height="70.0" rx="4"/>
<text class="node-package" x="70.0" y="15.0">math</text>
<text class="node-text" x="70.0" y="30.0">IsNaN</text>
<text class="node-time" x="70.0" y="45.0">flat: 16.65s (1.78%)</text>
<text class="node-time" x="70.0" y="60.0">cum: 16.65s (1.78%)</text>
</g>
<g transform="translate(685.0,740.0)">
<rect class="node" width="140.0" height="70.0" rx="4"/>
<text class="node-package" x="70.0" y="15.0">math</text>
<text class="node-text" x="70.0" y="30.0">Frexp</text>
<text class="node-time" x="70.0" y="45.0">flat: 0.19s (0.02%)</text>
<text class="node-time" x="70.0" y="60.0">cum: 50.45s (5.41%)</text>
</g>
<g transform="translate(1470.0,600.0)">
<rect class="node" width="140.0" height="70.0" rx="4"/>
<text class="node-package" x="70.0" y="15.0">runtime</text>
<text class="node-text" x="70.0" y="30.0">goschedImpl</text>
<text class="node-time" x="70.0" y="45.0">flat: 0.01s (0.00%)</text>
<text class="node-time" x="70.0" y="60.0">cum: 2.07s (0.22%)</text>
</g>
<g transform="translate(1666.3,880.0)">
<rect class="node" width="140.0" height="70.0" rx="4"/>
<text class="node-package" x="70.0" y="15.0">math</text>
<text class="node-text" x="70.0" y="30.0">ldexp</text>
<text class="node-time" x="70.0" y="45.0">flat: 11.79s (1.26%)</text>
<text class="node-time" x="70.0" y="60.0">cum: 11.79s (1.26%)</text>
</g>
<g transform="translate(1862.5,880.0)">
<rect class="node" width="140.0" height="70.0" rx="4"/>
<text class="node-package" x="70.0" y="15.0">main</text>
<text class="node-text" x="70.0" y="30.0">main</text>
<text class="node-time" x="70.0" y="45.0">flat: 21.43s (2.30%)</text>
<text class="node-time" x="70.0" y="60.0">cum: 21.45s (2.30%)</text>
</g>
<g transform="translate(946.7,460.0)">
<rect class="node" width="140.0" height="70.0" rx="4"/>
<text class="node-package" x="70.0" y="15.0">runtime</text>
<text class="node-text" x="70.0" y="30.0">gopreempt_m</text>
<text class="node-time" x="70.0" y="45.0">flat: 0.00s (0.00%)</text>
<text class="node-time" x="70.0" y="60.0">cum: 2.05s (0.22%)</text>
</g>
<g transform="translate(1470.0,180.0)">
<rect class="node hot" width="140.0" height="70.0" rx="4"/>
<text class="node-package" x="70.0" y="15.0">math</text>
<text class="node-text" x="70.0" y="30.0">Log</text>
<text class="node-time" x="70.0" y="45.0">flat: 0.00s (0.00%)</text>
<text class="node-time" x="70.0" y="60.0">cum: 110.30s (11.82%)</text>
</g>
<g transform="translate(1077.5,740.0)">
<rect class="node" width="140.0" height="70.0" rx="4"/>
<text class="node-package" x="70.0" y="15.0">runtime</text>
<text class="node-text" x="70.0" y="30.0">sweepone</text>
<text class="node-time" x="70.0" y="45.0">flat: 0.28s (0.03%)</text>
<text class="node-time" x="70.0" y="60.0">cum: 5.08s (0.54%)</text>
</g>
<g transform="translate(1470.0,740.0)">
<rect class="node hot" width="140.0" height="70.0" rx="4"/>
<text class="node-package" x="70.0" y="15.0">math</text>
<text class="node-text" x="70.0" y="30.0">tan</text>
<text class="node-time" x="70.0" y="45.0">flat: 278.63s (29.86%)</text>
<text class="node-time" x="70.0" y="60.0">cum: 279.99s (30.00%)</text>
</g>
<g transform="translate(1993.3,460.0)">
<rect class="node" width="140.0" height="70.0" rx="4"/>
<text class="node-package" x="70.0" y="15.0">runtime</text>
<text class="node-text" x="70.0" y="30.0">systemstack</text>
<text class="node-time" x="70.0" y="45.0">flat: 0.05s (0.01%)</text>
<text class="node-time" x="70.0" y="60.0">cum: 3.06s (0.33%)</text>
</g>
<g transform="translate(1470.0,40.0)">
<rect class="node hot" width="140.0" height="70.0" rx="4"/>
<text class="node-package" x="70.0" y="15.0">runtime</text>
<text class="node-text" x="70.0" y="30.0">main</text>
<text class="node-time" x="70.0" y="45.0">flat: 0.00s (0.00%)</text>
<text class="node-time" x="70.0" y="60.0">cum: 933.23s (100.00%)</text>
</g>
<g transform="translate(1993.3,600.0)">
<rect class="node" width="140.0" height="70.0" rx="4"/>
<text class="node-package" x="70.0" y="15.0">runtime</text>
<text class="node-text" x="70.0" y="30.0">bgsweep</text>
<text class="node-time" x="70.0" y="45.0">flat: 0.10s (0.01%)</text>
<text class="node-time" x="70.0" y="60.0">cum: 5.38s (0.58%)</text>
</g>
<g transform="translate(1993.3,320.0)">
<rect class="node" width="140.0" height="70.0" rx="4"/>
<text class="node-package" x="70.0" y="15.0">runtime</text>
<text class="node-text" x="70.0" y="30.0">morestack</text>
<text class="node-time" x="70.0" y="45.0">flat: 0.00s (0.00%)</text>
<text class="node-time" x="70.0" y="60.0">cum: 1.84s (0.20%)</text>
</g>
<g transform="translate(2516.7,600.0)">
<rect class="node" width="140.0" height="70.0" rx="4"/>
<text class="node-package" x="70.0" y="15.0">runtime</text>
<text class="node-text" x="70.0" y="30.0">(*mheap)</text>
<text class="node-time" x="70.0" y="45.0">flat: 0.00s (0.00%)</text>
<text class="node-time" x="70.0" y="60.0">cum: 1.15s (0.12%)</text>
</g>
<g transform="translate(2058.8,880.0)">
<rect class="node hot" width="140.0" height="70.0" rx="4"/>
<text class="node-package" x="70.0" y="15.0">math</text>
<text class="node-text" x="70.0" y="30.0">pow</text>
<text class="node-time" x="70.0" y="45.0">flat: 406.38s (43.55%)</text>
<text class="node-time" x="70.0" y="60.0">cum: 406.38s (43.55%)</text>
</g>
<g transform="translate(2255.0,880.0)">
<rect class="node" width="140.0" height="70.0" rx="4"/>
<text class="node-package" x="70.0" y="15.0">math</text>
<text class="node-text" x="70.0" y="30.0">IsInf</text>
<text class="node-time" x="70.0" y="45.0">flat: 39.95s (4.28%)</text>
<text class="node-time" x="70.0" y="60.0">cum: 39.95s (4.28%)</text>
</g>
<g transform="translate(2451.3,880.0)">
<rect class="node" width="140.0" height="70.0" rx="4"/>
<text class="node-package" x="70.0" y="15.0">math</text>
<text class="node-text" x="70.0" y="30.0">normalize</text>
<text class="node-time" x="70.0" y="45.0">flat: 10.74s (1.15%)</text>
<text class="node-time" x="70.0" y="60.0">cum: 10.74s (1.15%)</text>
</g>
<g transform="translate(2647.5,880.0)">
<rect class="node" width="140.0" height="70.0" rx="4"/>
<text class="node-package" x="70.0" y="15.0">math</text>
<text class="node-text" x="70.0" y="30.0">Float64bits</text>
<text class="node-time" x="70.0" y="45.0">flat: 1.86s (0.20%)</text>
<text class="node-time" x="70.0" y="60.0">cum: 1.86s (0.20%)</text>
</g>
<g transform="translate(1862.5,740.0)">
<rect class="node" width="140.0" height="70.0" rx="4"/>
<text class="node-package" x="70.0" y="15.0">runtime</text>
<text class="node-text" x="70.0" y="30.0">sysUsedOS</text>
<text class="node-time" x="70.0" y="45.0">flat: 0.00s (0.00%)</text>
<text class="node-time" x="70.0" y="60.0">cum: 1.10s (0.12%)</text>
</g>
<g transform="translate(2255.0,740.0)">
<rect class="node" width="140.0" height="70.0" rx="4"/>
<text class="node-package" x="70.0" y="15.0">runtime</text>
<text class="node-text" x="70.0" y="30.0">schedule</text>
<text class="node-time" x="70.0" y="45.0">flat: 0.07s (0.01%)</text>
<text class="node-time" x="70.0" y="60.0">cum: 1.93s (0.21%)</text>
</g>
<g transform="translate(2843.8,880.0)">
<rect class="node" width="140.0" height="70.0" rx="4"/>
<text class="node-package" x="70.0" y="15.0">math</text>
<text class="node-text" x="70.0" y="30.0">frexp</text>
<text class="node-time" x="70.0" y="45.0">flat: 6.89s (0.74%)</text>
<text class="node-time" x="70.0" y="60.0">cum: 6.89s (0.74%)</text>
</g>
<g transform="translate(2647.5,740.0)">
<rect class="node" width="140.0" height="70.0" rx="4"/>
<text class="node-package" x="70.0" y="15.0">math</text>
<text class="node-text" x="70.0" y="30.0">Ldexp</text>
<text class="node-time" x="70.0" y="45.0">flat: 0.03s (0.00%)</text>
<text class="node-time" x="70.0" y="60.0">cum: 27.22s (2.92%)</text>
</g>
</svg>
